<?xml version="1.0" encoding="utf-8"?>
<!-- Generator: Adobe Illustrator 23.0.0, SVG Export Plug-In . SVG Version: 6.00 Build 0)  -->
<svg version="1.1" id="图层_1" xmlns="http://www.w3.org/2000/svg" xmlns:xlink="http://www.w3.org/1999/xlink" x="0px" y="0px"
	 viewBox="0 0 500 500" style="enable-background:new 0 0 500 500;" xml:space="preserve">
<style type="text/css">
	.st0{fill:url(#SVGID_1_);}
	.st1{fill:url(#SVGID_2_);}
	.st2{fill:#FFFFFF;stroke:#FFFFFF;stroke-width:25;stroke-linejoin:round;stroke-miterlimit:10;}
</style>
<g id="SVGRoot" xmlns:cc="http://creativecommons.org/ns#" xmlns:dc="http://purl.org/dc/elements/1.1/" xmlns:inkscape="http://www.inkscape.org/namespaces/inkscape" xmlns:osb="http://www.openswatchbook.org/uri/2009/osb" xmlns:rdf="http://www.w3.org/1999/02/22-rdf-syntax-ns#" xmlns:sodipodi="http://sodipodi.sourceforge.net/DTD/sodipodi-0.dtd" xmlns:svg="http://www.w3.org/2000/svg">
	
		<sodipodi:namedview  bordercolor="#666666" borderopacity="1.0" id="base" inkscape:current-layer="layer1" inkscape:cx="343.76278" inkscape:cy="349.94898" inkscape:document-rotation="0" inkscape:document-units="px" inkscape:pageopacity="0.0" inkscape:pageshadow="2" inkscape:window-height="1039" inkscape:window-maximized="0" inkscape:window-width="1402" inkscape:window-x="120" inkscape:window-y="0" inkscape:zoom="0.98994949" pagecolor="#ffffff" showgrid="true">
		<inkscape:grid  id="grid15325" type="xygrid"></inkscape:grid>
	</sodipodi:namedview>
	
		<g id="layer1" inkscape:groupmode="layer" inkscape:label="闂傚倸鍊搁崐鎼佸磹閻戣姤鍊块柨鏇炲€哥粻鏍煕濞叉牜澹曢崸妤佺厸閻忕偠閸旀氨鐥幆褎鍋ラ柡宀€鍠栭獮鍡涘级閸熷啯鎹囬弻">
		
			<radialGradient id="SVGID_1_" cx="249.9708" cy="626.0292" r="238.5708" gradientTransform="matrix(1 0 0 1.0109 0 -385.3916)" gradientUnits="userSpaceOnUse">
			<stop  offset="0" style="stop-color:#00FFE9"/>
			<stop  offset="0.5223" style="stop-color:#04FFF0"/>
			<stop  offset="0.658" style="stop-color:#03F7F2"/>
			<stop  offset="0.8624" style="stop-color:#02E3F9"/>
			<stop  offset="1" style="stop-color:#00D1FF"/>
		</radialGradient>
		<path class="st0" d="M488.5,251.9C486.2,383,380.3,488.6,250,488.6c-131.7,0-238.6-108-238.6-241.2
			C11.4,115.7,115.8,8.6,245.6,6.3C380.3,3.8,491,115.7,488.5,251.9z"/>
	</g>
	
		<radialGradient id="SVGID_2_" cx="221.6" cy="103.4756" r="0" gradientTransform="matrix(1 0 0 -1 0 501.2756)" gradientUnits="userSpaceOnUse">
		<stop  offset="0" style="stop-color:#00FFE9"/>
		<stop  offset="0.5223" style="stop-color:#04FFF0"/>
		<stop  offset="0.658" style="stop-color:#03F7F2"/>
		<stop  offset="0.8624" style="stop-color:#02E3F9"/>
		<stop  offset="1" style="stop-color:#00D1FF"/>
	</radialGradient>
	<path class="st1" d="M221.6,397.8"/>
</g>
<g>
	<path class="st2" d="M233,352.9c-16.6,8.8-37.3,13.2-62,13.2c-31.9,0-57.5-10.3-76.7-30.9s-28.8-47.6-28.8-81
		c0-35.9,10.8-64.9,32.4-87.1c21.6-22.1,49-33.2,82.2-33.2c21.3,0,38.9,3.1,52.9,9.2v28c-16.1-9-33.8-13.5-53.2-13.5
		c-25.8,0-46.7,8.6-62.7,25.8s-24,40.2-24,69.1c0,27.4,7.5,49.2,22.5,65.4c15,16.2,34.6,24.4,59,24.4c22.6,0,42.1-5,58.6-15v25.6
		H233z"/>
	<path class="st2" d="M434,161h-65v201h-26V161h-65v-23h156V161z"/>
</g>
</svg>
