<?xml version="1.0" encoding="utf-8"?>
<!-- Generator: Adobe Illustrator 23.0.0, SVG Export Plug-In . SVG Version: 6.00 Build 0)  -->
<svg version="1.1" id="图层_1" xmlns="http://www.w3.org/2000/svg" xmlns:xlink="http://www.w3.org/1999/xlink" x="0px" y="0px"
	 viewBox="0 0 256 256" style="enable-background:new 0 0 256 256;" xml:space="preserve">
<style type="text/css">
	.st0{fill:url(#SVGID_1_);}
	.st1{fill:url(#SVGID_2_);}
	.st2{fill:none;stroke:#FFFFFF;stroke-width:17;stroke-linecap:round;stroke-miterlimit:10;}
</style>
<g id="SVGRoot" xmlns:cc="http://creativecommons.org/ns#" xmlns:dc="http://purl.org/dc/elements/1.1/" xmlns:inkscape="http://www.inkscape.org/namespaces/inkscape" xmlns:osb="http://www.openswatchbook.org/uri/2009/osb" xmlns:rdf="http://www.w3.org/1999/02/22-rdf-syntax-ns#" xmlns:sodipodi="http://sodipodi.sourceforge.net/DTD/sodipodi-0.dtd" xmlns:svg="http://www.w3.org/2000/svg">
	
		<sodipodi:namedview  bordercolor="#666666" borderopacity="1.0" id="base" inkscape:current-layer="layer1" inkscape:cx="343.76278" inkscape:cy="349.94898" inkscape:document-rotation="0" inkscape:document-units="px" inkscape:pageopacity="0.0" inkscape:pageshadow="2" inkscape:window-height="1039" inkscape:window-maximized="0" inkscape:window-width="1402" inkscape:window-x="120" inkscape:window-y="0" inkscape:zoom="0.98994949" pagecolor="#ffffff" showgrid="true">
		<inkscape:grid  id="grid15325" type="xygrid"></inkscape:grid>
	</sodipodi:namedview>
	
		<g id="layer1" inkscape:groupmode="layer" inkscape:label="闂傚倸鍊搁崐鎼佸磹閹间礁纾归柟闂寸绾惧綊鏌熼梻瀵哥痪鎯х秺閺岋綁骞嬮敐鍛呮捇鏌涙繝鍌涘仴闁哄被鍔戝鎾倷濞村浜鹃柛婵勫劤娑撳秹鏌″鍥у箞婵犵數鍋涘鍫曟偋濠婂嫮鐝堕柡鍥ュ灩闁裤倖淇婇妶鍕厡闁告ɑ鎮傞弻锝堢疀閺囩偘鍝楅梻浣告啞濮婄懓閵娾晜鍎夋鐐叉闂佺閸庣敻寮婚垾宕囨殕闁逞冪獥闁哄秴绁﹂梺绯曞墲缁嬫垹鐥閺屾盯鎮㈠畡鐗堟闂佸湱鎳撳ú">
		
			<radialGradient id="SVGID_1_" cx="128.3759" cy="-539.6456" r="127.9758" gradientTransform="matrix(0.9986 0 0 -0.9992 5.499347e-04 -411.0731)" gradientUnits="userSpaceOnUse">
			<stop  offset="0" style="stop-color:#00FFE9"/>
			<stop  offset="0.5223" style="stop-color:#04FFF0"/>
			<stop  offset="0.658" style="stop-color:#03F7F2"/>
			<stop  offset="0.8624" style="stop-color:#02E3F9"/>
			<stop  offset="1" style="stop-color:#00D1FF"/>
		</radialGradient>
		<path class="st0" d="M256,130.5C254.7,200,198,256,128.2,256C57.7,256,0.4,198.7,0.4,128.1C0.4,58.3,56.3,1.5,125.9,0.3
			C198-1,257.3,58.3,256,130.5z"/>
	</g>
	
		<radialGradient id="SVGID_2_" cx="65.2201" cy="-69.2759" r="0" gradientTransform="matrix(1 0 0 1 0 195.2756)" gradientUnits="userSpaceOnUse">
		<stop  offset="0" style="stop-color:#00FFE9"/>
		<stop  offset="0.5223" style="stop-color:#04FFF0"/>
		<stop  offset="0.658" style="stop-color:#03F7F2"/>
		<stop  offset="0.8624" style="stop-color:#02E3F9"/>
		<stop  offset="1" style="stop-color:#00D1FF"/>
	</radialGradient>
	<path class="st1" d="M65.2,126"/>
</g>
<g>
	<path class="st2" d="M95.4,162.4c0,13.7-11.1,24.9-24.7,24.9S46,176.1,46,162.4c0-13.7,11.1-24.9,24.7-24.9
		c6.9,0,12.1,3.1,13.6,4.1C91,146.1,95.4,154.1,95.4,162.4z"/>
	<ellipse class="st2" cx="129" cy="67.8" rx="24.6" ry="24.8"/>
	<path class="st2" d="M190.6,152.7c-6.2-4.5-10.3-11.9-10.3-20.2c0-13.7,11.1-24.9,24.7-24.9c5.6,0,10.8,1.9,15,5.1"/>
	<line class="st2" x1="147.9" y1="83.9" x2="186.1" y2="116.4"/>
	<line class="st2" x1="83.9" y1="141" x2="116" y2="88.8"/>
</g>
<line class="st2" x1="102.9" y1="207.5" x2="169.5" y2="207.3"/>
</svg>
