<?xml version="1.0" encoding="utf-8"?>
<!-- Generator: Adobe Illustrator 23.0.0, SVG Export Plug-In . SVG Version: 6.00 Build 0)  -->
<svg version="1.1" id="图层_1" xmlns="http://www.w3.org/2000/svg" xmlns:xlink="http://www.w3.org/1999/xlink" x="0px" y="0px"
	 viewBox="0 0 22 22" style="enable-background:new 0 0 22 22;" xml:space="preserve">
<style type="text/css">
	.st0{fill:#808080;stroke:#808080;stroke-width:0.5;stroke-linecap:round;stroke-linejoin:round;stroke-miterlimit:10;}
</style>
<path class="st0" d="M10.5,6.5v1h1v-1H10.5z M10.5,8.5v7h1v-7H10.5z"/>
<path class="st0" d="M10.9,2.4C6.2,2.5,2.4,6.3,2.4,11s3.8,8.6,8.6,8.6s8.6-3.8,8.6-8.6l0,0c0-4.7-3.8-8.6-8.6-8.6
	C11,2.4,10.9,2.4,10.9,2.4L10.9,2.4z M11,3.4L11,3.4c4.2,0,7.6,3.4,7.6,7.6s-3.4,7.6-7.6,7.6S3.4,15.2,3.4,11S6.8,3.5,11,3.4L11,3.4
	z"/>
</svg>
