<?xml version="1.0" encoding="utf-8"?>
<!-- Generator: Adobe Illustrator 23.0.0, SVG Export Plug-In . SVG Version: 6.00 Build 0)  -->
<svg version="1.1" id="svg6" xmlns="http://www.w3.org/2000/svg" xmlns:xlink="http://www.w3.org/1999/xlink" x="0px" y="0px"
	 viewBox="0 0 22 22" style="enable-background:new 0 0 22 22;" xml:space="preserve">
<style type="text/css">
	.st0{fill:#808080;}
</style>
<path id="path4" class="st0" d="M5,3C3.9,3,3,3.9,3,5v12c0,1.1,0.9,2,2,2h12c1.1,0,2-0.9,2-2V5c0-1.1-0.9-2-2-2H5z M5,4h12
	c0.6,0,1,0.4,1,1v12c0,0.6-0.4,1-1,1H5c-0.6,0-1-0.4-1-1V5C4,4.4,4.4,4,5,4z M6,5C5.4,5,5,5.4,5,6v10c0,0.6,0.4,1,1,1h10
	c0.6,0,1-0.4,1-1V6c0-0.6-0.4-1-1-1H6z"/>
</svg>
