<?xml version="1.0" encoding="utf-8"?>
<!-- Generator: Adobe Illustrator 23.0.0, SVG Export Plug-In . SVG Version: 6.00 Build 0)  -->
<svg version="1.1" id="图层_1" xmlns="http://www.w3.org/2000/svg" xmlns:xlink="http://www.w3.org/1999/xlink" x="0px" y="0px"
	 viewBox="0 0 24 24" style="enable-background:new 0 0 24 24;" xml:space="preserve">
<style type="text/css">
	.st0{fill:none;}
	.st1{fill:none;stroke:#FF9900;stroke-width:2;stroke-linecap:round;stroke-linejoin:round;}
	.st2{fill:none;stroke:#FF9900;stroke-width:3;stroke-linecap:round;stroke-linejoin:round;}
</style>
<path class="st0" d="M15.1,4.4V12V4.4z"/>
<path class="st1" d="M15.1,4.4V12"/>
<path class="st0" d="M8.7,4.2l6.3,6.3L8.7,4.2z"/>
<path class="st1" d="M8.7,4.2l6.3,6.3"/>
<path class="st0" d="M4.4,8.9H12H4.4z"/>
<path class="st1" d="M4.4,8.9H12"/>
<path class="st0" d="M10.4,9.2l-6.3,6.3L10.4,9.2z"/>
<path class="st1" d="M10.4,9.2l-6.3,6.3"/>
<path class="st0" d="M8.9,12.4V20V12.4z"/>
<path class="st1" d="M8.9,12.4V20"/>
<path class="st0" d="M9.2,13.6l6.3,6.3L9.2,13.6z"/>
<path class="st1" d="M9.2,13.6l6.3,6.3"/>
<path class="st0" d="M12,15.1h8H12z"/>
<path class="st1" d="M12,15.1h8"/>
<path class="st0" d="M20.2,8.7L13.9,15L20.2,8.7z"/>
<path class="st1" d="M20.2,8.7L13.9,15"/>
<path class="st2" d="M12,15.1c1.7,0,3.1-1.4,3.1-3.1S13.7,8.9,12,8.9S8.9,10.3,8.9,12S10.3,15.1,12,15.1z"/>
<path class="st1" d="M12,20.9c4.9,0,8.9-4,8.9-8.9s-4-8.9-8.9-8.9s-8.9,4-8.9,8.9S7.1,20.9,12,20.9z"/>
</svg>
