<?xml version="1.0" encoding="utf-8"?>
<!-- Generator: Adobe Illustrator 23.0.0, SVG Export Plug-In . SVG Version: 6.00 Build 0)  -->
<svg version="1.1" id="图层_1" xmlns="http://www.w3.org/2000/svg" xmlns:xlink="http://www.w3.org/1999/xlink" x="0px" y="0px"
	 viewBox="0 0 24 24" style="enable-background:new 0 0 24 24;" xml:space="preserve">
<style type="text/css">
	.st0{fill:none;stroke:#FF9900;stroke-width:1.5;stroke-miterlimit:10;}
	.st1{fill:none;stroke:#FF9900;stroke-width:2;stroke-miterlimit:10;}
</style>
<path class="st0" d="M15.4,5.2v7.3V5.2z"/>
<path class="st0" d="M15.4,5.2v7.3"/>
<path class="st0" d="M9.3,5.1l6,6L9.3,5.1z"/>
<path class="st0" d="M9.3,5.1l6,6"/>
<path class="st0" d="M5.2,9.5h7.3H5.2z"/>
<path class="st0" d="M5.2,9.5h7.3"/>
<path class="st0" d="M10.9,9.8l-6,6L10.9,9.8z"/>
<path class="st0" d="M10.9,9.8l-6,6"/>
<path class="st0" d="M9.5,12.8v7.3V12.8z"/>
<path class="st0" d="M9.5,12.8v7.3"/>
<path class="st0" d="M9.8,13.9l6,6L9.8,13.9z"/>
<path class="st0" d="M9.8,13.9l6,6"/>
<path class="st0" d="M12.4,15.4H20H12.4z"/>
<path class="st0" d="M12.4,15.4H20"/>
<path class="st0" d="M20.2,9.3l-6,6L20.2,9.3z"/>
<path class="st0" d="M20.2,9.3l-6,6"/>
<path class="st1" d="M12.4,15.6c1.7,0,3.1-1.5,3.1-3.1s-1.5-3.1-3.1-3.1s-3.1,1.5-3.1,3.1S10.7,15.6,12.4,15.6z"/>
<path class="st0" d="M12.4,20.8c4.6,0,8.4-3.8,8.4-8.4S17,4,12.4,4S4,7.8,4,12.4S7.8,20.8,12.4,20.8z"/>
</svg>
