<?xml version="1.0" encoding="utf-8"?>
<!-- Generator: Adobe Illustrator 23.0.0, SVG Export Plug-In . SVG Version: 6.00 Build 0)  -->
<svg version="1.1" id="图层_1" xmlns="http://www.w3.org/2000/svg" xmlns:xlink="http://www.w3.org/1999/xlink" x="0px" y="0px"
	 viewBox="0 0 24 24" style="enable-background:new 0 0 24 24;" xml:space="preserve">
<style type="text/css">
	.st0{fill:none;stroke:#DA4453;stroke-width:1.25;stroke-linejoin:round;}
	.st1{fill:none;stroke:#DA4453;stroke-width:1.25;stroke-linecap:round;stroke-linejoin:round;}
	.st2{fill:none;stroke:#808080;stroke-width:1.25;stroke-linecap:round;stroke-linejoin:round;}
</style>
<path class="st0" d="M5.7,19.3h12.7c0.3,0,0.5-0.2,0.5-0.5v-7.2H5.2v7.2C5.2,19.1,5.4,19.3,5.7,19.3z"/>
<path class="st1" d="M8.6,19.2v-2.6"/>
<path class="st1" d="M12,19.2v-2.6"/>
<path class="st1" d="M15.4,19.2v-2.6"/>
<path class="st1" d="M6.9,19.3h10.3"/>
<path class="st2" d="M10.8,3.8h2.4c0.3,0,0.5,0.2,0.5,0.5v3.8h5.9c0.3,0,0.5,0.2,0.5,0.5V11c0,0.3-0.2,0.5-0.5,0.6H4.4
	c-0.3-0.1-0.5-0.3-0.5-0.6V8.6c0-0.3,0.2-0.5,0.5-0.5h5.9V4.3C10.3,4,10.5,3.8,10.8,3.8z"/>
</svg>
