<?xml version="1.0" encoding="utf-8"?>
<!-- Generator: Adobe Illustrator 23.0.0, SVG Export Plug-In . SVG Version: 6.00 Build 0)  -->
<svg version="1.1" id="图层_1" xmlns="http://www.w3.org/2000/svg" xmlns:xlink="http://www.w3.org/1999/xlink" x="0px" y="0px"
	 viewBox="0 0 22 22" style="enable-background:new 0 0 22 22;" xml:space="preserve">
<style type="text/css">
	.st0{fill:#3DAEE9;}
	.st1{fill:#808080;}
</style>
<g>
	<path class="st0" d="M8.5,8h1C9.8,8,10,8.2,10,8.5v1C10,9.8,9.8,10,9.5,10h-1C8.2,10,8,9.8,8,9.5v-1C8,8.2,8.2,8,8.5,8z"/>
	<path class="st0" d="M11.5,8h1C12.8,8,13,8.2,13,8.5v1c0,0.3-0.2,0.5-0.5,0.5h-1C11.2,10,11,9.8,11,9.5v-1C11,8.2,11.2,8,11.5,8z"
		/>
	<path class="st0" d="M14.5,8h1C15.8,8,16,8.2,16,8.5v1c0,0.3-0.2,0.5-0.5,0.5h-1C14.2,10,14,9.8,14,9.5v-1C14,8.2,14.2,8,14.5,8z"
		/>
	<path class="st0" d="M8.5,11h1c0.3,0,0.5,0.2,0.5,0.5v1c0,0.3-0.2,0.5-0.5,0.5h-1C8.2,13,8,12.8,8,12.5v-1C8,11.2,8.2,11,8.5,11z"
		/>
	<path class="st0" d="M11.5,11h1c0.3,0,0.5,0.2,0.5,0.5v1c0,0.3-0.2,0.5-0.5,0.5h-1c-0.3,0-0.5-0.2-0.5-0.5v-1
		C11,11.2,11.2,11,11.5,11z"/>
	<path class="st0" d="M14.5,11h1c0.3,0,0.5,0.2,0.5,0.5v1c0,0.3-0.2,0.5-0.5,0.5h-1c-0.3,0-0.5-0.2-0.5-0.5v-1
		C14,11.2,14.2,11,14.5,11z"/>
	<path class="st0" d="M5.5,11h1C6.8,11,7,11.2,7,11.5v1C7,12.8,6.8,13,6.5,13h-1C5.2,13,5,12.8,5,12.5v-1C5,11.2,5.2,11,5.5,11z"/>
	<path class="st0" d="M5.5,14h1C6.8,14,7,14.2,7,14.5v1C7,15.8,6.8,16,6.5,16h-1C5.2,16,5,15.8,5,15.5v-1C5,14.2,5.2,14,5.5,14z"/>
	<path class="st0" d="M8.5,14h1c0.3,0,0.5,0.2,0.5,0.5v1c0,0.3-0.2,0.5-0.5,0.5h-1C8.2,16,8,15.8,8,15.5v-1C8,14.2,8.2,14,8.5,14z"
		/>
	<path class="st0" d="M11.5,14h1c0.3,0,0.5,0.2,0.5,0.5v1c0,0.3-0.2,0.5-0.5,0.5h-1c-0.3,0-0.5-0.2-0.5-0.5v-1
		C11,14.2,11.2,14,11.5,14z"/>
</g>
<path class="st1" d="M5,3C3.3,3,2,4.3,2,6v10c0,1.7,1.3,3,3,3h11c1.7,0,3-1.3,3-3V6c0-1.7-1.3-3-3-3H5z M5,6h11c1.1,0,2,0.9,2,2v8
	c0,1.1-0.9,2-2,2H5c-1.1,0-2-0.9-2-2V8C3,6.9,3.9,6,5,6z"/>
</svg>
