<?xml version="1.0" encoding="utf-8"?>
<!-- Generator: Adobe Illustrator 23.0.0, SVG Export Plug-In . SVG Version: 6.00 Build 0)  -->
<svg version="1.1" id="图层_1" xmlns="http://www.w3.org/2000/svg" xmlns:xlink="http://www.w3.org/1999/xlink" x="0px" y="0px"
	 viewBox="0 0 22 22" style="enable-background:new 0 0 22 22;" xml:space="preserve">
<style type="text/css">
	.st0{fill:#808080;}
	.st1{fill:#3DAEE9;}
</style>
<path class="st0" d="M6,3L6,3L3,6v0.9v11.4V19h0.7h11.4H16l0,0l2.9-2.9L19,16l0,0v-0.5V3.7V3h-0.7H6.5H6z M7,4h10.3l-1.9,1.9L15.3,6
	H7V4z M6,4.4V6H4.4L6,4.4z M18,4.7V15h-2V6.7l0.1-0.1L18,4.7z M4,7h2v8.3l-0.3,0.4L4,17.3V7z M7,7h8v8H7V7z M6.7,16H15v2H4.7
	l1.7-1.7L6.7,16z M16,16h1.6L16,17.6V16z"/>
<g>
	<path class="st1" d="M9.7,7.6v3.7v0.2l-2.4,2.3c0,0,0.6,0.6,0.7,0.6c0,0,1.5-1.4,2.4-2.3h4.2v-0.8l-3.9-0.1V7.6H9.7z"/>
</g>
</svg>
