<?xml version="1.0" encoding="utf-8"?>
<!-- Generator: Adobe Illustrator 23.0.0, SVG Export Plug-In . SVG Version: 6.00 Build 0)  -->
<svg version="1.1" id="图层_1" xmlns="http://www.w3.org/2000/svg" xmlns:xlink="http://www.w3.org/1999/xlink" x="0px" y="0px"
	 viewBox="0 0 22 22" style="enable-background:new 0 0 22 22;" xml:space="preserve">
<style type="text/css">
	.st0{fill:#808080;}
</style>
<path class="st0" d="M6.7,7L6,7.7l1.8,1.8L6,11.3L6.7,12l2.5-2.5L9,9.3L6.7,7z M10,11v1h4v-1H10z"/>
<path class="st0" d="M5,3C3.3,3,2,4.3,2,6v10c0,1.7,1.3,3,3,3h12c1.7,0,3-1.3,3-3V6c0-1.7-1.3-3-3-3H5z M5,4h12c1.1,0,2,0.9,2,2v10
	c0,1.1-0.9,2-2,2H5c-1.1,0-2-0.9-2-2V6C3,4.9,3.9,4,5,4z"/>
</svg>
