<?xml version="1.0" encoding="utf-8"?>
<!-- Generator: Adobe Illustrator 23.0.0, SVG Export Plug-In . SVG Version: 6.00 Build 0)  -->
<svg version="1.1" id="图层_1" xmlns="http://www.w3.org/2000/svg" xmlns:xlink="http://www.w3.org/1999/xlink" x="0px" y="0px"
	 viewBox="0 0 16 16" style="enable-background:new 0 0 16 16;" xml:space="preserve">
<style type="text/css">
	.st0{fill:#009900;stroke:#009900;stroke-width:0.75;stroke-linejoin:round;stroke-miterlimit:10;}
</style>
<g transform="translate(5.5586 -1)">
	<path class="st0" d="M-3.2,10.4c-1.2,1.2-1.2,3.1,0,4.2s3.1,1.2,4.2,0l2.8-2.8C5,10.7,5,8.8,3.9,7.6C3.6,7.3,3.3,7.2,3,7L2.4,7.6
		C2.4,7.6,2.3,7.7,2.3,7.8C2.6,7.9,2.9,8,3.1,8.3c0.8,0.8,0.8,2,0,2.8l-2.8,2.8c-0.8,0.8-2,0.8-2.8,0c-0.8-0.8-0.8-2,0-2.8l1.8-1.8
		C-0.8,8.9-0.8,8.5-0.8,8L-3.2,10.4z M1,6.2c-1.2,1.2-1.2,3.1,0,4.2c0.2,0.2,0.5,0.4,0.8,0.6l0.6-0.6c0.1-0.1,0.1-0.1,0.1-0.2
		C2.3,10.1,2,10,1.7,9.7C1,8.9,1,7.7,1.7,6.9l2.8-2.8c0.8-0.8,2-0.8,2.8,0c0.8,0.8,0.8,2,0,2.8L5.6,8.7C5.7,9.1,5.7,9.5,5.7,10
		l2.4-2.4c1.2-1.2,1.2-3.1,0-4.2S5,2.2,3.9,3.3L1,6.2z"/>
</g>
</svg>
