<?xml version="1.0" encoding="utf-8"?>
<!-- Generator: Adobe Illustrator 23.0.0, SVG Export Plug-In . SVG Version: 6.00 Build 0)  -->
<svg version="1.1" id="图层_1" xmlns="http://www.w3.org/2000/svg" xmlns:xlink="http://www.w3.org/1999/xlink" x="0px" y="0px"
	 viewBox="0 0 16 16" style="enable-background:new 0 0 16 16;" xml:space="preserve">
<style type="text/css">
	.st0{fill:#009900;stroke:#009900;stroke-width:0.25;stroke-linejoin:round;stroke-miterlimit:10;}
</style>
<g transform="translate(5.5586 -1)">
	<path class="st0" d="M-2.8,10.3c-1.1,1.1-1.1,2.9,0,3.9s2.9,1.1,3.9,0l2.6-2.6c1.1-1,1.1-2.8,0.1-3.9C3.5,7.4,3.3,7.3,2.9,7.1
		L2.4,7.6c0,0-0.1,0.1-0.1,0.2C2.6,8,2.8,8.1,3,8.3c0.8,0.8,0.8,1.9,0,2.6l-2.6,2.6c-0.8,0.8-1.9,0.8-2.6,0c-0.8-0.8-0.8-1.9,0-2.6
		l1.7-1.7C-0.7,9-0.7,8.5-0.7,8.1L-2.8,10.3z M1.1,6.3C0,7.4,0,9.2,1.1,10.2c0.2,0.2,0.4,0.3,0.8,0.6l0.6-0.6
		c0.1-0.1,0.1-0.1,0.1-0.2c-0.2,0-0.4-0.1-0.8-0.3C1.1,8.8,1.1,7.7,1.7,7l2.6-2.6c0.8-0.8,1.9-0.8,2.6,0S7.8,6.2,7,7L5.4,8.7
		c0.1,0.3,0.1,0.8,0.1,1.2l2.2-2.2c1.1-1.1,1.1-2.9,0-3.9S4.8,2.8,3.8,3.8L1.1,6.3z"/>
</g>
</svg>
