<?xml version="1.0" encoding="utf-8"?>
<!-- Generator: Adobe Illustrator 23.0.0, SVG Export Plug-In . SVG Version: 6.00 Build 0)  -->
<svg version="1.1" id="图层_1" xmlns="http://www.w3.org/2000/svg" xmlns:xlink="http://www.w3.org/1999/xlink" x="0px" y="0px"
	 viewBox="0 0 22 22" style="enable-background:new 0 0 22 22;" xml:space="preserve">
<style type="text/css">
	.st0{fill:#363636;}
	.st1{fill:#009900;}
	.st2{fill:#000099;}
	.st3{fill:#990000;}
</style>
<path class="st0" d="M8.3,2.4v11v0.2l-5.1,5.1l0.7,0.7c0,0,4-4,5-5h11.4v-1h-11v-11H8.3z"/>
<rect x="9" y="13.4" class="st1" width="11.3" height="1"/>
<polyline class="st2" points="8.3,13.9 8.3,2.4 9.3,2.4 9.3,13.9 "/>
<polyline class="st3" points="9.3,14.1 4,19.5 3.2,18.8 8.5,13.4 "/>
<path class="st0" d="M8.8,13.3c-0.3,0-0.6,0.2-0.6,0.6l0,0c0,0.3,0.3,0.6,0.6,0.6l0,0c0.3,0,0.6-0.3,0.6-0.6l0,0
	C9.4,13.6,9.1,13.3,8.8,13.3L8.8,13.3z"/>
</svg>
