<?xml version="1.0" encoding="utf-8"?>
<!-- Generator: Adobe Illustrator 23.0.0, SVG Export Plug-In . SVG Version: 6.00 Build 0)  -->
<svg version="1.1" id="图层_1" xmlns="http://www.w3.org/2000/svg" xmlns:xlink="http://www.w3.org/1999/xlink" x="0px" y="0px"
	 viewBox="0 0 22 22" style="enable-background:new 0 0 22 22;" xml:space="preserve">
<style type="text/css">
	.st0{fill:#363636;}
	.st1{fill:#009900;}
	.st2{fill:#000099;}
	.st3{fill:#990000;}
</style>
<path class="st0" d="M7,3v11v0.2l-5.1,5.1c0,0,0.7,0.7,0.7,0.7c0,0,4-4,5-5L19,15v-1H8V3H7z"/>
<rect x="7.7" y="14" class="st1" width="11.3" height="1"/>
<polyline class="st2" points="7,14.5 7,3 8,3 8,14.5 "/>
<polyline class="st3" points="8,14.7 2.7,20.1 1.9,19.3 7.2,14 "/>
<path class="st0" d="M7.5,13.9c-0.3,0-0.6,0.2-0.6,0.6l0,0c0,0.3,0.3,0.6,0.6,0.6l0,0c0.3,0,0.6-0.3,0.6-0.6l0,0
	C8.1,14.1,7.8,13.9,7.5,13.9L7.5,13.9z"/>
</svg>
