<?xml version="1.0" encoding="utf-8"?>
<!-- Generator: Adobe Illustrator 23.0.0, SVG Export Plug-In . SVG Version: 6.00 Build 0)  -->
<svg version="1.1" id="图层_1" xmlns="http://www.w3.org/2000/svg" xmlns:xlink="http://www.w3.org/1999/xlink" x="0px" y="0px"
	 viewBox="0 0 22 22" style="enable-background:new 0 0 22 22;" xml:space="preserve">
<style type="text/css">
	.st0{fill:#3DAEE9;}
	.st1{fill:#808080;}
</style>
<g transform="translate(1.5 2)">
	<path class="st0" d="M6,13.1c-0.8-0.3-1.8,0.1-2.2,0.9l0,0c-0.6,1-0.2,2.2,0.7,2.7c1,0.6,2.2,0.2,2.7-0.7c0.5-0.8,0.3-1.8-0.3-2.4
		 M4.6,14.5C4.9,14,5.5,13.9,6,14.1c0.5,0.3,0.6,0.9,0.4,1.4C6.1,16,5.5,16.1,5,15.9C4.5,15.6,4.4,15,4.6,14.5z"/>
	<path class="st0" d="M13,13.1c0.8-0.3,1.8,0.1,2.2,0.9l0,0c0.6,1,0.2,2.2-0.7,2.7c-1,0.6-2.2,0.2-2.7-0.7c-0.5-0.8-0.3-1.8,0.3-2.4
		 M14.4,14.5c-0.3-0.5-0.9-0.6-1.4-0.4c-0.5,0.3-0.6,0.9-0.4,1.4c0.3,0.5,0.9,0.6,1.4,0.4C14.5,15.6,14.6,15,14.4,14.5z"/>
</g>
<path class="st1" d="M9.5,12.6L9,13.5c0.6,0.3,1.3,0.5,2,0.5s1.4-0.2,2.1-0.6l-0.5-0.9c-0.5,0.3-1,0.4-1.5,0.4
	C10.5,13,9.9,12.9,9.5,12.6L9.5,12.6z"/>
<rect x="10" y="2.2" transform="matrix(0.866 -0.5 0.5 0.866 -3.2282 6.5104)" class="st1" width="1.1" height="14.1"/>
<rect x="10.9" y="2.2" transform="matrix(0.866 0.5 -0.5 0.866 6.1666 -4.4556)" class="st1" width="1.1" height="14.1"/>
</svg>
