<?xml version="1.0" encoding="utf-8"?>
<!-- Generator: Adobe Illustrator 23.0.0, SVG Export Plug-In . SVG Version: 6.00 Build 0)  -->
<svg version="1.1" id="图层_1" xmlns="http://www.w3.org/2000/svg" xmlns:xlink="http://www.w3.org/1999/xlink" x="0px" y="0px"
	 viewBox="0 0 16 16" style="enable-background:new 0 0 16 16;" xml:space="preserve">
<style type="text/css">
	.st0{fill:#363636;}
</style>
<g>
	<path class="st0" d="M5,2v1C4.3,3,3.6,3.1,3.1,3.4C2.7,3.6,2.4,4,2.2,4.4C2.1,4.8,2,5.3,2,6v4c0,0.7,0.1,1.2,0.2,1.6
		c0.2,0.4,0.5,0.8,0.8,1C3.8,13,4.7,13,6,13h4c1.3,0,2.2,0,2.9-0.4c0.4-0.2,0.7-0.6,0.8-1c0.2-0.4,0.2-1,0.2-1.6V6
		c0-0.7-0.1-1.2-0.2-1.6c-0.2-0.4-0.4-0.8-0.8-1C12.2,3,11.3,3,10,3H7V2H5z M6,4h4c1.3,0,2.1,0.1,2.5,0.3c0.2,0.1,0.3,0.2,0.4,0.5
		C12.9,5,13,5.4,13,6v4c0,0.6-0.1,1-0.2,1.3c-0.1,0.3-0.2,0.4-0.4,0.5C12.1,11.9,11.3,12,10,12H6c-1.3,0-2.1-0.1-2.5-0.3
		c-0.2-0.1-0.3-0.2-0.4-0.5C3.1,11,3,10.6,3,10V6c0-0.6,0.1-1,0.2-1.3c0.1-0.3,0.2-0.4,0.4-0.5C3.9,4.1,4.7,4,6,4z M8,5
		C6.3,5,5,6.3,5,8s1.3,3,3,3s3-1.3,3-3S9.7,5,8,5z M11.5,5C11.2,5,11,5.2,11,5.5C11,5.8,11.2,6,11.5,6S12,5.8,12,5.5
		C12,5.2,11.8,5,11.5,5z M8,6c1.1,0,2,0.9,2,2s-0.9,2-2,2S6,9.1,6,8S6.9,6,8,6z M8,7C7.4,7,7,7.4,7,8s0.4,1,1,1s1-0.4,1-1S8.6,7,8,7
		z"/>
</g>
</svg>
