<?xml version="1.0" encoding="utf-8"?>
<!-- Generator: Adobe Illustrator 23.0.0, SVG Export Plug-In . SVG Version: 6.00 Build 0)  -->
<svg version="1.1" id="图层_1" xmlns="http://www.w3.org/2000/svg" xmlns:xlink="http://www.w3.org/1999/xlink" x="0px" y="0px"
	 viewBox="0 0 16 16" style="enable-background:new 0 0 16 16;" xml:space="preserve">
<style type="text/css">
	.st0{fill:#808080;}
</style>
<g>
	<path class="st0" d="M5.3,3v0.9C4.7,3.9,4,4,3.6,4.2c-0.4,0.2-0.7,0.6-0.9,1C2.6,5.5,2.6,6,2.6,6.6v3.7c0,0.6,0.1,1.1,0.2,1.5
		c0.2,0.4,0.5,0.7,0.7,0.9C4.2,13,5,13,6.2,13h3.7c1.2,0,2,0,2.7-0.4c0.4-0.2,0.6-0.5,0.7-0.9c0.2-0.4,0.2-0.9,0.2-1.5V6.6
		c0-0.6-0.1-1.1-0.2-1.5c-0.2-0.4-0.4-0.7-0.7-0.9C12,3.8,11.1,3.8,9.9,3.8H7.1V3H5.3z M6.2,4.8h3.7c1.2,0,1.9,0.1,2.3,0.3
		c0.2,0.1,0.3,0.2,0.4,0.5c0,0.2,0.1,0.5,0.1,1.1v3.7c0,0.5-0.1,0.9-0.2,1.2c-0.1,0.3-0.2,0.4-0.4,0.5c-0.3,0.1-1,0.2-2.2,0.2H6.2
		c-1.2,0-1.9-0.1-2.3-0.3c-0.2-0.1-0.3-0.2-0.4-0.5c0-0.2-0.1-0.5-0.1-1.1V6.6c0-0.5,0.1-0.9,0.2-1.2C3.7,5.2,3.8,5.1,4,5
		C4.3,4.9,5,4.8,6.2,4.8z M8,5.7c-1.6,0-2.7,1.2-2.7,2.7s1.2,2.7,2.7,2.7s2.7-1.2,2.7-2.7S9.6,5.7,8,5.7z M11.3,5.7
		c-0.3,0-0.5,0.2-0.5,0.5s0.2,0.5,0.5,0.5s0.5-0.2,0.5-0.5C11.7,5.9,11.5,5.7,11.3,5.7z M8,6.6c1,0,1.8,0.8,1.8,1.8S9.1,10.3,8,10.3
		S6.2,9.5,6.2,8.5S7,6.6,8,6.6z M8,7.5c-0.5,0-0.9,0.4-0.9,0.9c0,0.6,0.4,1,0.9,1c0.6,0,1-0.4,1-0.9S8.6,7.5,8,7.5z"/>
</g>
</svg>
