<?xml version="1.0" encoding="utf-8"?>
<!-- Generator: Adobe Illustrator 23.0.0, SVG Export Plug-In . SVG Version: 6.00 Build 0)  -->
<svg version="1.1" id="图层_1" xmlns="http://www.w3.org/2000/svg" xmlns:xlink="http://www.w3.org/1999/xlink" x="0px" y="0px"
	 viewBox="0 0 16 16" style="enable-background:new 0 0 16 16;" xml:space="preserve">
<style type="text/css">
	.st0{fill:#990000;stroke:#990000;stroke-width:0.25;stroke-miterlimit:10;}
	.st1{fill:#990000;stroke:#990000;stroke-width:0.25;stroke-linecap:round;stroke-linejoin:round;stroke-miterlimit:10;}
</style>
<g transform="translate(5.5586 -1)">
	<path class="st0" d="M-0.5,7.9l-2.4,2.4c-1.1,1.1-1.1,2.7,0,3.7s2.7,1.1,3.7,0l2.4-2.1c0,0,0.2-0.1-0.4-0.6l-2.5,2.1
		c-0.6,0.6-1.7,0.6-2.4,0c-0.6-0.6-0.6-1.7,0-2.4l2.5-2.3L-0.5,7.9z"/>
</g>
<g transform="translate(5.5586 -1)">
	<path class="st0" d="M5.4,10.1l2.4-2.4c1.1-1.1,1.1-2.7,0-3.7S5,3,4.1,4.1L1.8,6.2c0,0-0.2,0.1,0.4,0.6l2.5-2.1
		c0.6-0.6,1.7-0.6,2.4,0s0.6,1.7,0,2.4L4.7,9.5L5.4,10.1z"/>
</g>
<path class="st1" d="M7.9,7.7L7.8,7.9c-0.1,0.1-0.3,0.1-0.4,0L4.5,4.8c-0.1-0.1-0.1-0.3,0-0.4l0.2-0.2c0.1-0.1,0.3-0.1,0.4,0
	l2.8,3.1C8.2,7.5,8.2,7.6,7.9,7.7z"/>
<path class="st1" d="M11.7,11.8l-0.2,0.2c-0.1,0.1-0.3,0.1-0.4,0L8.5,9.1C8.4,9,8.4,8.9,8.5,8.8l0.2-0.2c0.1-0.1,0.3-0.1,0.4,0
	l2.6,2.8C11.8,11.5,11.8,11.7,11.7,11.8z"/>
</svg>
