<?xml version="1.0" encoding="utf-8"?>
<!-- Generator: Adobe Illustrator 23.0.0, SVG Export Plug-In . SVG Version: 6.00 Build 0)  -->
<svg version="1.1" id="图层_1" xmlns="http://www.w3.org/2000/svg" xmlns:xlink="http://www.w3.org/1999/xlink" x="0px" y="0px"
	 viewBox="0 0 16 16" style="enable-background:new 0 0 16 16;" xml:space="preserve">
<style type="text/css">
	.st0{fill:#990000;stroke:#990000;stroke-width:0.75;stroke-linejoin:round;stroke-miterlimit:10;}
	.st1{fill:none;stroke:#990000;stroke-width:2;stroke-linecap:round;stroke-linejoin:round;}
</style>
<g transform="translate(5.5586 -1)">
	<path class="st0" d="M2.4,11.8l-2.1,2.1c-0.8,0.8-2,0.8-2.8,0c-0.8-0.8-0.8-2,0-2.8l1.8-1.8c-0.1-0.4-0.7-0.7-0.7-0.7l-1.8,1.8
		c-1.2,1.2-1.2,3.1,0,4.2s3.1,1.2,4.2,0l2.2-2.2 M2.4,10.4 M3,5.7l1.9-1.9c0.8-0.8,2-0.8,2.8,0c0.8,0.8,0.8,2,0,2.8L5.8,8.5
		C6,8.9,6.7,9,6.7,9l1.7-1.7c1.2-1.2,1.2-3.1,0-4.2s-3.1-1.2-4.2,0L2.2,5L3,5.7z"/>
</g>
<g>
	<g>
		<line class="st1" x1="3.4" y1="3.5" x2="6.7" y2="6.6"/>
		<line class="st1" x1="9.6" y1="9.2" x2="12.9" y2="12.2"/>
	</g>
</g>
</svg>
