<?xml version="1.0" encoding="utf-8"?>
<!-- Generator: Adobe Illustrator 23.0.0, SVG Export Plug-In . SVG Version: 6.00 Build 0)  -->
<svg version="1.1" id="图层_1" xmlns="http://www.w3.org/2000/svg" xmlns:xlink="http://www.w3.org/1999/xlink" x="0px" y="0px"
	 viewBox="0 0 16 16" style="enable-background:new 0 0 16 16;" xml:space="preserve">
<style type="text/css">
	.st0{fill:#808080;}
</style>
<path class="st0" d="M12.8,5.7c0-0.2-0.1-0.4-0.3-0.5S12.1,5,11.8,5H4.2C3.9,5,3.7,5.1,3.5,5.2C3.3,5.3,3.2,5.5,3.2,5.7
	s0,0.4,0.2,0.5l3.8,4.4c0.1,0.1,0.3,0.2,0.5,0.3C7.9,11,8.1,11,8.3,11c0.2-0.1,0.4-0.2,0.5-0.3l3.8-4.4C12.8,6.1,12.8,5.9,12.8,5.7
	L12.8,5.7z"/>
</svg>
