<?xml version="1.0" encoding="utf-8"?>
<!-- Generator: Adobe Illustrator 23.0.0, SVG Export Plug-In . SVG Version: 6.00 Build 0)  -->
<svg version="1.1" id="图层_1" xmlns="http://www.w3.org/2000/svg" xmlns:xlink="http://www.w3.org/1999/xlink" x="0px" y="0px"
	 viewBox="0 0 24 24" style="enable-background:new 0 0 24 24;" xml:space="preserve">
<style type="text/css">
	.st0{fill:none;stroke:#808080;stroke-width:1.5;stroke-linecap:round;stroke-linejoin:round;}
</style>
<path class="st0" d="M5.3,4h13.3C19.4,4,20,4.6,20,5.3v13.3c0,0.7-0.6,1.3-1.3,1.3H5.3C4.6,20,4,19.4,4,18.7V5.3C4,4.6,4.6,4,5.3,4z
	"/>
<path class="st0" d="M7.1,15.1V8.9h3.6"/>
<path class="st0" d="M7.1,12h3.3"/>
<path class="st0" d="M7.1,15.1h3.3"/>
<path class="st0" d="M12.9,15.1V9.8"/>
<path class="st0" d="M12.9,15.1v-2.9c0-1.1,0.9-2,2-2l0,0c1.1,0,2,0.9,2,2v2.9"/>
</svg>
