<?xml version="1.0" encoding="utf-8"?>
<!-- Generator: Adobe Illustrator 23.0.0, SVG Export Plug-In . SVG Version: 6.00 Build 0)  -->
<svg version="1.1" id="图层_1" xmlns="http://www.w3.org/2000/svg" xmlns:xlink="http://www.w3.org/1999/xlink" x="0px" y="0px"
	 viewBox="0 0 22 22" style="enable-background:new 0 0 22 22;" xml:space="preserve">
<style type="text/css">
	.st0{fill:#3DAEE9;stroke:#363636;stroke-linecap:round;stroke-miterlimit:10;}
	.st1{fill:#3DAEE9;}
</style>
<line class="st0" x1="10.4" y1="9.1" x2="6.2" y2="6"/>
<line class="st0" x1="12.2" y1="8.6" x2="14.2" y2="5.4"/>
<line class="st0" x1="12.7" y1="11" x2="17" y2="12.2"/>
<line class="st0" x1="11.5" y1="11.6" x2="11.9" y2="16.7"/>
<line class="st0" x1="10.3" y1="11" x2="6.2" y2="13.2"/>
<line class="st0" x1="4.7" y1="6.6" x2="4.7" y2="12.6"/>
<line class="st0" x1="6.2" y1="4.3" x2="13" y2="3.9"/>
<line class="st0" x1="15.8" y1="4.5" x2="18.5" y2="11.1"/>
<line class="st0" x1="18.3" y1="14.1" x2="13.7" y2="17.7"/>
<line class="st0" x1="10.7" y1="18.5" x2="5.8" y2="15.3"/>
<path id="path10" class="st1" d="M5,3.6c-0.8,0-1.5,0.7-1.5,1.5c0,0,0,0,0,0C3.5,6,4.2,6.6,5,6.6c0,0,0,0,0,0c0.5,0,1-0.2,1.2-0.6
	c0.2-0.2,0.3-0.5,0.3-0.9c0,0,0,0,0,0C6.5,4.3,5.8,3.6,5,3.6C5,3.6,5,3.6,5,3.6z M14.5,2.4C13.7,2.4,13,3,13,3.9c0,0,0,0,0,0
	c0,0.8,0.7,1.5,1.5,1.5c0,0,0,0,0,0c0.8,0,1.5-0.7,1.5-1.5c0,0,0,0,0,0C16,3,15.3,2.4,14.5,2.4C14.5,2.4,14.5,2.4,14.5,2.4z
	 M11.5,8.6c-0.8,0-1.5,0.7-1.5,1.5c0,0,0,0,0,0c0,0.8,0.7,1.5,1.5,1.5c0,0,0,0,0,0c0.8,0,1.5-0.7,1.5-1.5c0,0,0,0,0,0
	C13,9.3,12.3,8.6,11.5,8.6C11.5,8.6,11.5,8.6,11.5,8.6z M12.2,16.6c-0.8,0-1.5,0.7-1.5,1.5c0,0,0,0,0,0c0,0.8,0.7,1.5,1.5,1.5
	c0,0,0,0,0,0c0.8,0,1.5-0.7,1.5-1.5c0,0,0,0,0,0C13.7,17.3,13.1,16.6,12.2,16.6C12.2,16.6,12.2,16.6,12.2,16.6z M5,12.6
	c-0.8,0-1.5,0.7-1.5,1.5c0,0,0,0,0,0c0,0.8,0.7,1.5,1.5,1.5c0,0,0,0,0,0c0.8,0,1.5-0.7,1.5-1.5c0,0,0,0,0,0
	C6.5,13.3,5.8,12.6,5,12.6C5,12.6,5,12.6,5,12.6z M18.5,11.1c-0.8,0-1.5,0.7-1.5,1.5c0,0,0,0,0,0c0,0.8,0.7,1.5,1.5,1.5c0,0,0,0,0,0
	c0.8,0,1.5-0.7,1.5-1.5c0,0,0,0,0,0C20,11.8,19.3,11.1,18.5,11.1C18.5,11.1,18.5,11.1,18.5,11.1z"/>
</svg>
