<?xml version="1.0" encoding="utf-8"?>
<!-- Generator: Adobe Illustrator 23.0.0, SVG Export Plug-In . SVG Version: 6.00 Build 0)  -->
<svg version="1.1" id="图层_1" xmlns="http://www.w3.org/2000/svg" xmlns:xlink="http://www.w3.org/1999/xlink" x="0px" y="0px"
	 viewBox="0 0 22 22" style="enable-background:new 0 0 22 22;" xml:space="preserve">
<style type="text/css">
	.st0{fill:#3DAEE9;}
	.st1{fill:#808080;}
</style>
<path class="st0" d="M8,4.8H6.5v1.5H8 M10.5,4.8H9v1.5h1.4 M13,4.8h-1.4v1.5H13 M15.5,4.8H14v1.5h1.4 M8,7.3H6.5v1.5H8 M10.5,7.3H9
	v1.5h1.4 M13,7.3h-1.4v1.5H13 M15.5,7.3H14v1.5h1.4 M10.5,9.8H9v1.5h1.4 M13,9.8h-1.4v1.5H13"/>
<path class="st1" d="M4.7,2.8L3.6,3.9V5v0.3l5.3,7.5v3.8l0,0l4.2,3.2l0,0v-7l5.3-7.5V3.9l-1.1-1.1C17.3,2.8,4.7,2.8,4.7,2.8z
	 M4.7,3.9h12.7V5l-5.3,7.4l0,0l0,0v1.1v4.2L10,16.1v-2.6v-1.1l0,0l0,0L4.7,5V3.9z"/>
</svg>
