<?xml version="1.0" encoding="utf-8"?>
<!-- Generator: Adobe Illustrator 23.0.0, SVG Export Plug-In . SVG Version: 6.00 Build 0)  -->
<svg version="1.1" id="图层_1" xmlns="http://www.w3.org/2000/svg" xmlns:xlink="http://www.w3.org/1999/xlink" x="0px" y="0px"
	 viewBox="0 0 22 22" style="enable-background:new 0 0 22 22;" xml:space="preserve">
<style type="text/css">
	.st0{fill:#363636;}
</style>
<path d="M5.8,4.6v0.7h0.7V4.6H5.8z M7.6,4.6v0.7h0.7V4.6H7.6z M5.8,6.2v0.7h0.7V6.2H5.8z M7.6,6.2v0.7h0.7V6.2H7.6z M9.3,4.6v0.7H10
	V4.6H9.3z M11.1,4.6v0.7h0.7V4.6H11.1z M9.3,6.2v0.7H10V6.2H9.3z M11.1,6.2v0.7h0.7V6.2H11.1z M12.8,4.6v0.7h0.7V4.6H12.8z
	 M14.6,4.6v0.7h0.7V4.6H14.6z M12.8,6.2v0.7h0.7V6.2H12.8z M14.6,6.2v0.7h0.7V6.2H14.6z M16.1,4.6v0.7h0.7V4.6H16.1z M16.1,6.2v0.7
	h0.7V6.2H16.1z M7.6,7.5v0.7h0.7V7.5H7.6z M7.6,9v0.7h0.7V9H7.6z M9.3,7.5v0.7H10V7.5H9.3z M11.1,7.5v0.7h0.7V7.5H11.1z M9.3,9v0.7
	H10V9H9.3z M11.1,9v0.7h0.7V9H11.1z M12.8,7.5v0.7h0.7V7.5H12.8z M14.6,7.5v0.7h0.7V7.5H14.6z M12.8,9v0.7h0.7V9H12.8z M9.3,10.5
	v0.7h0.7v-0.7H9.3z M11,10.5v0.7h0.7v-0.7H11z M12.7,10.5v0.7h0.7v-0.7H12.7z"/>
<path class="st0" d="M5,3L4,4v1v0.3l5,7.1V16l0,0l4,3l0,0v-6.6l5-7.1V4l-1-1H5z M5,4h12v1l-5,7l0,0l0,0v1v4l-2-1.5V13v-1l0,0l0,0
	L5,5V4z"/>
</svg>
