<?xml version="1.0" encoding="utf-8"?>
<!-- Generator: Adobe Illustrator 23.0.0, SVG Export Plug-In . SVG Version: 6.00 Build 0)  -->
<svg version="1.1" id="图层_1" xmlns="http://www.w3.org/2000/svg" xmlns:xlink="http://www.w3.org/1999/xlink" x="0px" y="0px"
	 viewBox="0 0 22 22" style="enable-background:new 0 0 22 22;" xml:space="preserve">
<style type="text/css">
	.st0{fill:#808080;}
	.st1{opacity:0.35;fill:#363636;fill-opacity:0.5;}
</style>
<path class="st0" d="M4,3v6v1v5v1v1H3v1h1v1h1v-1h13.3H19v-0.7V17h-0.3L18,16.3l-0.8-0.8l-2-2l0,0l0,0L13,15.5l-1.3-1.3l-0.8-0.8
	l-2-2h0H7H6H5V11v-1h1h1h1.9h0l2-2l0.8-0.8L13,5.9L15.1,8l0,0l0,0l2-2L18,5.2l1-1l-0.7-0.7l-1,1l-0.8,0.8l-1.3,1.3L13,4.5l0,0l0,0
	L11.5,6H5V5V3H4z M5,6h6.5L11,6.5l-0.8,0.8L8.5,9H7H6H5V6z M5,12.4h1h1h1.5l1.7,1.7L11,15l0.5,0.5H5V15V12.4z M15.1,14.8l1.3,1.3
	l0.8,0.8l0,0H5v-1v-0.6h6.5L13,17l0,0l0,0L15.1,14.8z"/>
<path class="st1" d="M18.9,4.1L18.9,4.1L18.9,4.1L18.9,4.1z M19,4.1l-1,1L17.1,6l-2,2l0,0l0,0L13,5.9l-1.3,1.3L10.9,8l-2,2h0H7H6H5
	v1v0.4h1h1h1.9h0l2,2l0.8,0.8l1.3,1.3l2.1-2.1l0,0l0,0l2,2l0.8,0.8l0.7,0.7H19V4.1z M5,12.4V15v0.4h6.5L11,15l-0.8-0.8l-1.7-1.7H7H6
	H5z M15.1,14.8L13,17l0,0l0,0l-1.5-1.5H5V17h5l2,0l0,0h0l2,0l3.3,0l0,0l-0.8-0.8L15.1,14.8z"/>
</svg>
