<?xml version="1.0" encoding="utf-8"?>
<!-- Generator: Adobe Illustrator 23.0.0, SVG Export Plug-In . SVG Version: 6.00 Build 0)  -->
<svg version="1.1" id="图层_1" xmlns="http://www.w3.org/2000/svg" xmlns:xlink="http://www.w3.org/1999/xlink" x="0px" y="0px"
	 viewBox="0 0 22 22" style="enable-background:new 0 0 22 22;" xml:space="preserve">
<style type="text/css">
	.st0{fill:#808080;}
	.st1{fill:#3DAEE9;}
</style>
<path class="st0" d="M15.8,5.6l-3.8,4.2l0.8,0.7l3.8-4.2C16.4,6.1,16.1,5.8,15.8,5.6z M6.2,5.6L5.5,6.3l3.8,4.1L10,9.7L6.2,5.6z
	 M10.5,13.4v2.1h1v-2.1C11.1,13.4,10.8,13.4,10.5,13.4z"/>
<path id="path10" class="st1" d="M4.5,3C3.7,3,3,3.7,3,4.5c0,0,0,0,0,0C3,5.3,3.7,6,4.5,6c0,0,0,0,0,0C5.3,6,6,5.3,6,4.5
	c0,0,0,0,0,0C6,3.7,5.3,3,4.5,3C4.5,3,4.5,3,4.5,3z M17.5,3C16.7,3,16,3.7,16,4.5c0,0,0,0,0,0C16,5.3,16.7,6,17.5,6c0,0,0,0,0,0
	C18.3,6,19,5.3,19,4.5c0,0,0,0,0,0C19,3.7,18.3,3,17.5,3C17.5,3,17.5,3,17.5,3z M11,10c-0.8,0-1.5,0.7-1.5,1.5c0,0,0,0,0,0
	c0,0.8,0.7,1.5,1.5,1.5c0,0,0,0,0,0c0.8,0,1.5-0.7,1.5-1.5c0,0,0,0,0,0C12.5,10.7,11.8,10,11,10C11,10,11,10,11,10z M11,16
	c-0.8,0-1.5,0.7-1.5,1.5c0,0,0,0,0,0c0,0.8,0.7,1.5,1.5,1.5c0,0,0,0,0,0c0.8,0,1.5-0.7,1.5-1.5c0,0,0,0,0,0C12.5,16.7,11.8,16,11,16
	C11,16,11,16,11,16z"/>
</svg>
