<?xml version="1.0" encoding="utf-8"?>
<!-- Generator: Adobe Illustrator 23.0.0, SVG Export Plug-In . SVG Version: 6.00 Build 0)  -->
<svg version="1.1" id="图层_1" xmlns="http://www.w3.org/2000/svg" xmlns:xlink="http://www.w3.org/1999/xlink" x="0px" y="0px"
	 viewBox="0 0 22 22" style="enable-background:new 0 0 22 22;" xml:space="preserve">
<style type="text/css">
	.st0{fill:#808080;stroke:#808080;stroke-width:0.5;stroke-miterlimit:10;}
</style>
<path class="st0" d="M10.4,1.2v2.2h1.2V1.2H10.4z M4.5,3.7L3.7,4.5l1.6,1.6l0.9-0.9L4.5,3.7z M17.5,3.7l-1.6,1.6l1,0.9l1.5-1.6
	L17.5,3.7z M11,4.9c-3.4,0-6.1,2.7-6.1,6.1s2.7,6.1,6.1,6.1s6.1-2.7,6.1-6.1S14.4,4.9,11,4.9z M11,6.1c2.7,0,4.9,2.2,4.9,4.9
	s-2.2,4.9-4.9,4.9S6.1,13.7,6.1,11S8.3,6.1,11,6.1z M1.2,10.4v1.2h2.2v-1.2H1.2z M18.6,10.4v1.2h2.2v-1.2H18.6z M5.3,15.9l-1.6,1.6
	l0.9,0.9l1.6-1.5L5.3,15.9z M16.9,15.9l-1,1l1.6,1.6l0.9-0.9L16.9,15.9z M10.4,18.6v2.2h1.2v-2.2H10.4z"/>
</svg>
