<?xml version="1.0" encoding="utf-8"?>
<!-- Generator: Adobe Illustrator 23.0.0, SVG Export Plug-In . SVG Version: 6.00 Build 0)  -->
<svg version="1.1" id="图层_1" xmlns="http://www.w3.org/2000/svg" xmlns:xlink="http://www.w3.org/1999/xlink" x="0px" y="0px"
	 viewBox="0 0 22 22" style="enable-background:new 0 0 22 22;" xml:space="preserve">
<style type="text/css">
	.st0{fill:#808080;}
	.st1{fill:#3DAEE9;}
</style>
<path class="st0" d="M16,3v1H5.9C6,4.2,6,4.3,6,4.5C6,4.7,6,4.8,5.9,5H16v1h3V3H16z M17,4h1v1h-1V4z M4,5.9V16H3v3h3v-3H5V5.9
	C4.8,6,4.7,6,4.5,6C4.3,6,4.2,6,4,5.9z M4,17h1v1H4V17z"/>
<path class="st1" d="M4.5,3C3.7,3,3,3.7,3,4.5S3.7,6,4.5,6S6,5.3,6,4.5S5.3,3,4.5,3z M4.5,4C4.8,4,5,4.2,5,4.5S4.8,5,4.5,5
	S4,4.8,4,4.5S4.2,4,4.5,4z"/>
</svg>
