<?xml version="1.0" encoding="utf-8"?>
<!-- Generator: Adobe Illustrator 23.0.0, SVG Export Plug-In . SVG Version: 6.00 Build 0)  -->
<svg version="1.1" id="图层_1" xmlns="http://www.w3.org/2000/svg" xmlns:xlink="http://www.w3.org/1999/xlink" x="0px" y="0px"
	 viewBox="0 0 22 22" style="enable-background:new 0 0 22 22;" xml:space="preserve">
<style type="text/css">
	.st0{fill:#808080;}
	.st1{fill:#3DAEE9;}
</style>
<path class="st0" d="M16,3v1c-3.4,0-6.7,1.5-8.9,4H8v0.5C10.1,6.3,13,5,16,5v1h3V3H16z M17,4h1v1h-1V4z M7,8.1c-1.9,2.2-3,5-3,7.9H3
	v3h3v-3H5c0-2.6,0.9-5,2.5-7H7V8.1z M4,17h1v1H4V17z"/>
<path class="st1" d="M6,7v3h3V7H6z M7,8h1v1H7V8z"/>
</svg>
