<?xml version="1.0" encoding="utf-8"?>
<!-- Generator: Adobe Illustrator 23.0.0, SVG Export Plug-In . SVG Version: 6.00 Build 0)  -->
<svg version="1.1" id="图层_1" xmlns="http://www.w3.org/2000/svg" xmlns:xlink="http://www.w3.org/1999/xlink" x="0px" y="0px"
	 viewBox="0 0 16 16" style="enable-background:new 0 0 16 16;" xml:space="preserve">
<style type="text/css">
	.st0{fill:#990000;stroke:#990000;stroke-width:0.5;stroke-miterlimit:10;}
</style>
<path class="st0" d="M8,2.4C4.9,2.4,2.4,4.9,2.4,8s2.5,5.6,5.6,5.6s5.6-2.5,5.6-5.6S11.1,2.4,8,2.4z M8,3.1c2.7,0,4.9,2.2,4.9,4.9
	c0,1.2-0.4,2.3-1.2,3.2L4.8,4.3C5.7,3.5,6.8,3.1,8,3.1z M4.3,4.8l6.9,6.9c-0.9,0.8-2,1.2-3.2,1.2c-2.7,0-4.9-2.2-4.9-4.9
	C3.1,6.8,3.6,5.7,4.3,4.8z"/>
</svg>
