<?xml version="1.0" encoding="utf-8"?>
<!-- Generator: Adobe Illustrator 23.0.0, SVG Export Plug-In . SVG Version: 6.00 Build 0)  -->
<svg version="1.1" id="图层_1" xmlns="http://www.w3.org/2000/svg" xmlns:xlink="http://www.w3.org/1999/xlink" x="0px" y="0px"
	 viewBox="0 0 22 22" style="enable-background:new 0 0 22 22;" xml:space="preserve">
<style type="text/css">
	.st0{fill:#808080;}
</style>
<path class="st0" d="M15.5,13c-1.9,0-3.5,1.6-3.5,3.5s1.6,3.5,3.5,3.5s3.5-1.6,3.5-3.5S17.4,13,15.5,13z M15,14h1v2h2v1h-2v2h-1v-2
	h-2v-1h2V14z"/>
<path class="st0" d="M7,3C5.3,3,4,4.3,4,6v10c0,1.7,1.3,3,3,3h4v-1H7c-1.1,0-2-0.9-2-2V6c0-1.1,0.9-2,2-2h5v5h5v3h1V8l-5-5h-1H7z
	 M13,4.4L16.6,8H13L13,4.4z"/>
</svg>
