<?xml version="1.0" encoding="utf-8"?>
<!-- Generator: Adobe Illustrator 23.0.0, SVG Export Plug-In . SVG Version: 6.00 Build 0)  -->
<svg version="1.1" id="图层_1" xmlns="http://www.w3.org/2000/svg" xmlns:xlink="http://www.w3.org/1999/xlink" x="0px" y="0px"
	 viewBox="0 0 22 22" style="enable-background:new 0 0 22 22;" xml:space="preserve">
<style type="text/css">
	.st0{fill:#808080;}
</style>
<g>
	<circle class="st0" cx="6" cy="11" r="1"/>
	<circle class="st0" cx="11" cy="11" r="1"/>
	<circle class="st0" cx="16" cy="11" r="1"/>
	<path class="st0" d="M11,2c-5,0-9,4-9,9c0,5,4,9,9,9s9-4,9-9S16,2,11,2C11,2,11,2,11,2L11,2z M11,3c4.4,0,8,3.6,8,8s-3.6,8-8,8
		s-8-3.6-8-8S6.6,3,11,3z"/>
</g>
</svg>
