<?xml version="1.0" encoding="utf-8"?>
<!-- Generator: Adobe Illustrator 23.0.0, SVG Export Plug-In . SVG Version: 6.00 Build 0)  -->
<svg version="1.1" id="图层_1" xmlns="http://www.w3.org/2000/svg" xmlns:xlink="http://www.w3.org/1999/xlink" x="0px" y="0px"
	 viewBox="0 0 22 22" style="enable-background:new 0 0 22 22;" xml:space="preserve">
<style type="text/css">
	.st0{fill:#808080;}
</style>
<path class="st0" d="M5,5v1h1V5H5z M7,5v1h1V5H7z M9,5v1h1V5H9z M12,5v1h1V5H12z M14,5v1h1V5H14z M16,5v1h1V5H16z M5,7v1h1V7H5z
	 M16,7v1h1V7H16z M1,9v4l3-2L1,9z M5,9v1h1V9H5z M16,9v1h1V9H16z M21,9l-3,2l3,2V9z M5,11v7h12v-7H5z M6,12h10v5H6V12z"/>
</svg>
