<?xml version="1.0" encoding="utf-8"?>
<!-- Generator: Adobe Illustrator 23.0.0, SVG Export Plug-In . SVG Version: 6.00 Build 0)  -->
<svg version="1.1" id="图层_1" xmlns="http://www.w3.org/2000/svg" xmlns:xlink="http://www.w3.org/1999/xlink" x="0px" y="0px"
	 viewBox="0 0 22 22" style="enable-background:new 0 0 22 22;" xml:space="preserve">
<style type="text/css">
	.st0{fill:#808080;}
</style>
<path class="st0" d="M5.8,8.4v2.4h2.4V8.4H5.8z M9.3,8.4v2.4h2.4V8.4H9.3z M12.9,8.4v2.4h2.4V8.4H12.9z M5.8,13.2v2.4h2.4v-2.4
	C8.2,13.2,5.8,13.2,5.8,13.2z M9.3,13.2v2.4h2.4v-2.4C11.7,13.2,9.3,13.2,9.3,13.2z"/>
<path class="st0" d="M5,3C3.3,3,2,4.3,2,6v10c0,1.7,1.3,3,3,3h11c1.7,0,3-1.3,3-3V6c0-1.7-1.3-3-3-3H5z M5,6h11c1.1,0,2,0.9,2,2v8
	c0,1.1-0.9,2-2,2H5c-1.1,0-2-0.9-2-2V8C3,6.9,3.9,6,5,6z"/>
</svg>
