<?xml version="1.0" encoding="utf-8"?>
<!-- Generator: Adobe Illustrator 23.0.0, SVG Export Plug-In . SVG Version: 6.00 Build 0)  -->
<svg version="1.1" id="图层_1" xmlns="http://www.w3.org/2000/svg" xmlns:xlink="http://www.w3.org/1999/xlink" x="0px" y="0px"
	 viewBox="0 0 22 22" style="enable-background:new 0 0 22 22;" xml:space="preserve">
<style type="text/css">
	.st0{fill:#808080;}
</style>
<path class="st0" d="M7,9v2h2V9H7z M10,10v1h5v-1H10z M7,12v1h8v-1H7z M7,14v1h8v-1H7z"/>
<path class="st0" d="M6,3C4.3,3,3,4.3,3,6v10c0,1.7,1.3,3,3,3h10c1.7,0,3-1.3,3-3V6c0-1.7-1.3-3-3-3H6z M6,6h10c1.1,0,2,0.9,2,2v8
	c0,1.1-0.9,2-2,2H6c-1.1,0-2-0.9-2-2V8C4,6.9,4.9,6,6,6z"/>
</svg>
