<?xml version="1.0" encoding="utf-8"?>
<!-- Generator: Adobe Illustrator 23.0.0, SVG Export Plug-In . SVG Version: 6.00 Build 0)  -->
<svg version="1.1" id="图层_1" xmlns="http://www.w3.org/2000/svg" xmlns:xlink="http://www.w3.org/1999/xlink" x="0px" y="0px"
	 viewBox="0 0 22 22" style="enable-background:new 0 0 22 22;" xml:space="preserve">
<style type="text/css">
	.st0{fill:#000099;stroke:#000099;stroke-width:0.75;stroke-miterlimit:10;}
	.st1{fill:#353535;stroke:#333333;stroke-width:0.5;stroke-miterlimit:10;}
</style>
<path class="st0" d="M11,4.5c-4.1,0-7.7,2.6-8.7,6.3c0,0.2,0,0.4,0,0.5c1,3.7,4.6,6.2,8.7,6.2c0,0,0,0,0,0c4.1,0,7.7-2.6,8.7-6.3
	c0-0.2,0-0.4,0-0.5C18.7,7.1,15.1,4.5,11,4.5C11,4.5,11,4.5,11,4.5L11,4.5z M11,5.5c3.6,0,6.7,2.2,7.6,5.5c-0.9,3.2-4,5.5-7.6,5.5
	c-3.6,0-6.7-2.2-7.6-5.5C4.3,7.8,7.4,5.5,11,5.5L11,5.5z"/>
<path class="st1" d="M11,7.7c-1.8,0-3.3,1.5-3.3,3.3s1.5,3.3,3.3,3.3s3.3-1.5,3.3-3.3S12.8,7.7,11,7.7z M11,8.8c1.2,0,2.2,1,2.2,2.2
	s-1,2.2-2.2,2.2s-2.2-1-2.2-2.2S9.8,8.8,11,8.8z"/>
</svg>
