<?xml version="1.0" encoding="utf-8"?>
<!-- Generator: Adobe Illustrator 23.0.0, SVG Export Plug-In . SVG Version: 6.00 Build 0)  -->
<svg version="1.1" id="图层_1" xmlns="http://www.w3.org/2000/svg" xmlns:xlink="http://www.w3.org/1999/xlink" x="0px" y="0px"
	 viewBox="0 0 22 22" style="enable-background:new 0 0 22 22;" xml:space="preserve">
<style type="text/css">
	.st0{fill:#808080;stroke:#808080;stroke-width:0.25;stroke-miterlimit:10;}
	.st1{fill:#3DAEE9;}
</style>
<path class="st0" d="M12.2,11.6h3.5c1.8,0,3.2-1.4,3.2-3.2s-1.4-3.2-3.2-3.2h-3.5l-0.2,1h3.7c1.2,0,2.2,1,2.2,2.2s-1,2.2-2.2,2.2
	h-3.5"/>
<path class="st0" d="M9.8,10.4H6.3c-1.8,0-3.2,1.4-3.2,3.2s1.4,3.2,3.2,3.2h3.6l0.1-1.1H6.3c-1.2,0-2.2-1-2.2-2.2s1-2.2,2.2-2.2h3.5
	"/>
<path id="path10" class="st1" d="M11,3.8c-1,0-1.8,0.8-1.8,1.8l0,0c0,1,0.8,1.8,1.8,1.8l0,0c1,0,1.8-0.8,1.8-1.8l0,0
	C12.8,4.6,12,3.8,11,3.8L11,3.8z M11,4.8c0.4,0,0.8,0.4,0.8,0.8S11.4,6.4,11,6.4S10.2,6,10.2,5.6S10.6,4.8,11,4.8z M11,9.1
	c-1,0-1.8,0.8-1.8,1.8l0,0c0,1,0.8,1.8,1.8,1.8l0,0c1,0,1.8-0.8,1.8-1.8l0,0C12.8,10,12,9.1,11,9.1L11,9.1z M11,14.5
	c-1,0-1.8,0.8-1.8,1.8l0,0c0,1,0.8,1.8,1.8,1.8l0,0c1,0,1.8-0.8,1.8-1.8l0,0C12.8,15.4,12,14.5,11,14.5L11,14.5z M11,10.2
	c0.4,0,0.8,0.4,0.8,0.8s-0.4,0.8-0.8,0.8s-0.8-0.4-0.8-0.8S10.6,10.2,11,10.2z M11,15.6c0.4,0,0.8,0.4,0.8,0.8s-0.4,0.8-0.8,0.8
	s-0.8-0.4-0.8-0.8S10.6,15.6,11,15.6z"/>
</svg>
