<?xml version="1.0" encoding="utf-8"?>
<!-- Generator: Adobe Illustrator 23.0.0, SVG Export Plug-In . SVG Version: 6.00 Build 0)  -->
<svg version="1.1" id="图层_1" xmlns="http://www.w3.org/2000/svg" xmlns:xlink="http://www.w3.org/1999/xlink" x="0px" y="0px"
	 viewBox="0 0 22 22" style="enable-background:new 0 0 22 22;" xml:space="preserve">
<style type="text/css">
	.st0{fill:#808080;}
	.st1{fill:#3DAEE9;}
</style>
<path class="st0" d="M11,3c-4.4,0-8,3.6-8,8c0,1.6,0.5,3.2,1.4,4.5c-0.1,0.1-0.1,0.2-0.2,0.3c-0.4,0.7-0.2,1.6,0.5,2
	C5.3,18.1,6,18,6.5,17.6C7.8,18.5,9.4,19,11,19c4.4,0,8-3.6,8-8S15.4,3,11,3z M11,4c3.9,0,7,3.1,7,7s-3.1,7-7,7
	c-1.4,0-2.8-0.4-4-1.3c0.1-0.6-0.2-1.2-0.7-1.5C6,15,5.6,15,5.3,15C4.4,13.8,4,12.4,4,11C4,7.1,7.1,4,11,4z M11,6c-2.8,0-5,2.2-5,5
	s2.2,5,5,5c1.1,0,2.2-0.4,3.1-1.1c0.7,0.2,1.4-0.1,1.7-0.7c0.3-0.5,0.3-1.1-0.1-1.6c0.2-0.5,0.3-1.1,0.3-1.6C16,8.2,13.8,6,11,6z
	 M11,7c2.2,0,4,1.8,4,4c0,0.4,0,0.7-0.1,1c-0.6-0.2-1.3,0.1-1.7,0.7c-0.3,0.5-0.3,1.1,0,1.6C12.6,14.8,11.8,15,11,15
	c-2.2,0-4-1.8-4-4S8.8,7,11,7z"/>
<circle class="st1" cx="11" cy="11" r="2"/>
</svg>
