<?xml version="1.0" encoding="utf-8"?>
<!-- Generator: Adobe Illustrator 23.0.0, SVG Export Plug-In . SVG Version: 6.00 Build 0)  -->
<svg version="1.1" id="图层_1" xmlns="http://www.w3.org/2000/svg" xmlns:xlink="http://www.w3.org/1999/xlink" x="0px" y="0px"
	 viewBox="0 0 22 22" style="enable-background:new 0 0 22 22;" xml:space="preserve">
<style type="text/css">
	.st0{fill:#808080;}
</style>
<path class="st0" d="M3,3v16h5h1h4h1h5V3H3z M4,4.1h4v3.2L4,6.4V4.1z M9,4.1h4v3.2H9V4.1z M14,4.1h4v2l-4,1.2V4.1z M4,7.5l4,0.8v2.1
	H4V7.5z M9,8.3h4v2.1l-4,1.1V8.3z M14,8.3l4-1.1v3.2h-4V8.3z M4,11.5h4V15l-4-1.3V11.5z M9,12.6l4-1.1v2.1H9V12.6z M14,11.5h4v2.1
	l-4,1.5V11.5z M4,14.7L8,16v1.9H4V14.7z M9,14.7h4v3.2H9V14.7z M14,16.3l4-1.6v3.2h-4V16.3z"/>
</svg>
