<?xml version="1.0" encoding="utf-8"?>
<!-- Generator: Adobe Illustrator 23.0.0, SVG Export Plug-In . SVG Version: 6.00 Build 0)  -->
<svg version="1.1" id="图层_1" xmlns="http://www.w3.org/2000/svg" xmlns:xlink="http://www.w3.org/1999/xlink" x="0px" y="0px"
	 viewBox="0 0 22 22" style="enable-background:new 0 0 22 22;" xml:space="preserve">
<style type="text/css">
	.st0{fill:none;stroke:#363636;stroke-width:1.25;stroke-linejoin:round;stroke-miterlimit:10;}
	.st1{fill:#3DAEE9;}
	.st2{fill:none;stroke:#3DAEE9;stroke-width:0.75;stroke-linejoin:round;stroke-miterlimit:10;}
	.st3{fill:#363636;}
</style>
<rect x="3.1" y="3.4" class="st0" width="15.8" height="15.1"/>
<rect x="6.6" y="6.9" class="st1" width="0.6" height="0.6"/>
<rect x="8" y="6.9" class="st1" width="0.6" height="0.6"/>
<rect x="9.3" y="6.9" class="st1" width="0.6" height="0.6"/>
<rect x="6.6" y="8.1" class="st1" width="0.6" height="0.6"/>
<rect x="8" y="8.1" class="st1" width="0.6" height="0.6"/>
<rect x="9.3" y="8.1" class="st1" width="0.6" height="0.6"/>
<rect x="6.6" y="9.2" class="st1" width="0.6" height="0.6"/>
<rect x="8" y="9.2" class="st1" width="0.6" height="0.6"/>
<rect x="9.3" y="9.2" class="st1" width="0.6" height="0.6"/>
<rect x="5.6" y="5.9" class="st2" width="5.5" height="5"/>
<rect x="12.3" y="6.9" class="st3" width="0.6" height="0.6"/>
<rect x="13.7" y="6.9" class="st3" width="0.6" height="0.6"/>
<rect x="15" y="6.9" class="st3" width="0.6" height="0.6"/>
<rect x="12.3" y="8.1" class="st3" width="0.6" height="0.6"/>
<rect x="13.7" y="8.1" class="st3" width="0.6" height="0.6"/>
<rect x="15" y="8.1" class="st3" width="0.6" height="0.6"/>
<rect x="12.3" y="9.2" class="st3" width="0.6" height="0.6"/>
<rect x="13.7" y="9.2" class="st3" width="0.6" height="0.6"/>
<rect x="15" y="9.2" class="st3" width="0.6" height="0.6"/>
<rect x="16.5" y="6.9" class="st3" width="0.6" height="0.6"/>
<rect x="16.5" y="8.1" class="st3" width="0.6" height="0.6"/>
<rect x="16.5" y="9.2" class="st3" width="0.6" height="0.6"/>
<rect x="12.3" y="10.5" class="st3" width="0.6" height="0.6"/>
<rect x="13.7" y="10.5" class="st3" width="0.6" height="0.6"/>
<rect x="15" y="10.5" class="st3" width="0.6" height="0.6"/>
<rect x="16.5" y="10.5" class="st3" width="0.6" height="0.6"/>
<rect x="12.3" y="12" class="st3" width="0.6" height="0.6"/>
<rect x="13.7" y="12" class="st3" width="0.6" height="0.6"/>
<rect x="15" y="12" class="st3" width="0.6" height="0.6"/>
<rect x="12.3" y="13.2" class="st3" width="0.6" height="0.6"/>
<rect x="13.7" y="13.2" class="st3" width="0.6" height="0.6"/>
<rect x="15" y="13.2" class="st3" width="0.6" height="0.6"/>
<rect x="12.3" y="14.3" class="st3" width="0.6" height="0.6"/>
<rect x="13.7" y="14.3" class="st3" width="0.6" height="0.6"/>
<rect x="15" y="14.3" class="st3" width="0.6" height="0.6"/>
<rect x="16.5" y="12" class="st3" width="0.6" height="0.6"/>
<rect x="16.5" y="13.2" class="st3" width="0.6" height="0.6"/>
<rect x="16.5" y="14.3" class="st3" width="0.6" height="0.6"/>
<rect x="12.3" y="15.5" class="st3" width="0.6" height="0.6"/>
<rect x="13.7" y="15.5" class="st3" width="0.6" height="0.6"/>
<rect x="15" y="15.5" class="st3" width="0.6" height="0.6"/>
<rect x="16.5" y="15.5" class="st3" width="0.6" height="0.6"/>
<rect x="6.7" y="12" class="st3" width="0.6" height="0.6"/>
<rect x="8.1" y="12" class="st3" width="0.6" height="0.6"/>
<rect x="9.4" y="12" class="st3" width="0.6" height="0.6"/>
<rect x="6.7" y="13.2" class="st3" width="0.6" height="0.6"/>
<rect x="8.1" y="13.2" class="st3" width="0.6" height="0.6"/>
<rect x="9.4" y="13.2" class="st3" width="0.6" height="0.6"/>
<rect x="6.7" y="14.3" class="st3" width="0.6" height="0.6"/>
<rect x="8.1" y="14.3" class="st3" width="0.6" height="0.6"/>
<rect x="9.4" y="14.3" class="st3" width="0.6" height="0.6"/>
<rect x="10.9" y="12" class="st3" width="0.6" height="0.6"/>
<rect x="10.9" y="13.2" class="st3" width="0.6" height="0.6"/>
<rect x="10.9" y="14.3" class="st3" width="0.6" height="0.6"/>
<rect x="6.7" y="15.5" class="st3" width="0.6" height="0.6"/>
<rect x="8.1" y="15.5" class="st3" width="0.6" height="0.6"/>
<rect x="9.4" y="15.5" class="st3" width="0.6" height="0.6"/>
<rect x="10.9" y="15.5" class="st3" width="0.6" height="0.6"/>
<rect x="12.3" y="5.6" class="st3" width="0.6" height="0.6"/>
<rect x="13.7" y="5.6" class="st3" width="0.6" height="0.6"/>
<rect x="15" y="5.6" class="st3" width="0.6" height="0.6"/>
<rect x="16.5" y="5.6" class="st3" width="0.6" height="0.6"/>
<rect x="5.3" y="11.9" class="st3" width="0.6" height="0.6"/>
<rect x="5.3" y="13.1" class="st3" width="0.6" height="0.6"/>
<rect x="5.3" y="14.2" class="st3" width="0.6" height="0.6"/>
<rect x="5.3" y="15.5" class="st3" width="0.6" height="0.6"/>
</svg>
