<?xml version="1.0" encoding="utf-8"?>
<!-- Generator: Adobe Illustrator 23.0.0, SVG Export Plug-In . SVG Version: 6.00 Build 0)  -->
<svg version="1.1" id="图层_1" xmlns="http://www.w3.org/2000/svg" xmlns:xlink="http://www.w3.org/1999/xlink" x="0px" y="0px"
	 viewBox="0 0 22 22" style="enable-background:new 0 0 22 22;" xml:space="preserve">
<style type="text/css">
	.st0{fill:#808080;}
</style>
<path class="st0" d="M11.5,2C11.2,2,11,2.2,11,2.5S11.2,3,11.5,3S12,2.8,12,2.5S11.8,2,11.5,2z M4.5,3C4.2,3,4,3.2,4,3.5
	S4.2,4,4.5,4S5,3.8,5,3.5S4.8,3,4.5,3z M18.5,3C18.2,3,18,3.2,18,3.5S18.2,4,18.5,4S19,3.8,19,3.5S18.8,3,18.5,3z M11.5,4
	C11.2,4,11,4.2,11,4.5S11.2,5,11.5,5S12,4.8,12,4.5S11.8,4,11.5,4z M6.5,5C6.2,5,6,5.2,6,5.5S6.2,6,6.5,6S7,5.8,7,5.5S6.8,5,6.5,5z
	 M11,5C9.1,5,7.4,5.9,6.3,7.3l3.1,2.5C9.8,9.3,10.4,9,11,9V8.5v-2V5z M11,6.5C11,6.8,11.2,7,11.5,7S12,6.8,12,6.5S11.8,6,11.5,6
	S11,6.2,11,6.5z M11,8.5C11,8.8,11.2,9,11.5,9S12,8.8,12,8.5S11.8,8,11.5,8S11,8.2,11,8.5z M14.7,5.1l-2.7,4.2
	c0.5,0.3,0.9,0.9,0.9,1.5l5-0.4C17.8,8.2,16.5,6.2,14.7,5.1z M3.5,10C3.2,10,3,10.2,3,10.5S3.2,11,3.5,11S4,10.8,4,10.5
	S3.8,10,3.5,10z M5.5,10C5.2,10,5,10.2,5,10.5S5.2,11,5.5,11S6,10.8,6,10.5S5.8,10,5.5,10z M7.5,10C7.2,10,7,10.2,7,10.5
	S7.2,11,7.5,11S8,10.8,8,10.5S7.8,10,7.5,10z M9.5,10C9.2,10,9,10.2,9,10.5S9.2,11,9.5,11s0.5-0.2,0.5-0.5S9.8,10,9.5,10z M11.5,10
	c-0.3,0-0.5,0.2-0.5,0.5s0.2,0.5,0.5,0.5s0.5-0.2,0.5-0.5S11.8,10,11.5,10z M11.5,12c-0.3,0-0.5,0.2-0.5,0.5s0.2,0.5,0.5,0.5
	s0.5-0.2,0.5-0.5S11.8,12,11.5,12z M13.5,12c-0.3,0-0.5,0.2-0.5,0.5s0.2,0.5,0.5,0.5s0.5-0.2,0.5-0.5S13.8,12,13.5,12z M9.6,12.4
	l-2.1,2.1C8.4,15.4,9.6,16,11,16v-1.5V13C10.4,13,9.9,12.8,9.6,12.4z M11,14.5c0,0.3,0.2,0.5,0.5,0.5s0.5-0.2,0.5-0.5
	S11.8,14,11.5,14S11,14.2,11,14.5z M15.5,14c-0.3,0-0.5,0.2-0.5,0.5s0.2,0.5,0.5,0.5s0.5-0.2,0.5-0.5S15.8,14,15.5,14z M6.5,16
	C6.2,16,6,16.2,6,16.5S6.2,17,6.5,17S7,16.8,7,16.5S6.8,16,6.5,16z M11.5,16c-0.3,0-0.5,0.2-0.5,0.5s0.2,0.5,0.5,0.5
	s0.5-0.2,0.5-0.5S11.8,16,11.5,16z M17.5,16c-0.3,0-0.5,0.2-0.5,0.5s0.2,0.5,0.5,0.5s0.5-0.2,0.5-0.5S17.8,16,17.5,16z M4.5,18
	C4.2,18,4,18.2,4,18.5S4.2,19,4.5,19S5,18.8,5,18.5S4.8,18,4.5,18z M11.5,18c-0.3,0-0.5,0.2-0.5,0.5s0.2,0.5,0.5,0.5
	s0.5-0.2,0.5-0.5S11.8,18,11.5,18z"/>
</svg>
