<?xml version="1.0" encoding="utf-8"?>
<!-- Generator: Adobe Illustrator 23.0.0, SVG Export Plug-In . SVG Version: 6.00 Build 0)  -->
<svg version="1.1" id="图层_1" xmlns="http://www.w3.org/2000/svg" xmlns:xlink="http://www.w3.org/1999/xlink" x="0px" y="0px"
	 viewBox="0 0 24 24" style="enable-background:new 0 0 24 24;" xml:space="preserve">
<style type="text/css">
	.st0{fill-rule:evenodd;clip-rule:evenodd;fill:#808080;}
	.st1{fill:#808080;}
</style>
<path class="st0" d="M10.4,5.7H8.9v1.6H6.5c-1.3,0-2.4,1.1-2.4,2.4v4.7c0,1.3,1.1,2.4,2.4,2.4h2.4v1.6h1.6V5.7z M8.9,8.9v6.3H6.5
	c-0.4,0-0.8-0.4-0.8-0.8V9.6c0-0.4,0.4-0.8,0.8-0.8H8.9z"/>
<path class="st1" d="M17.5,15.1H12v1.6h5.5c1.3,0,2.4-1.1,2.4-2.4V9.6c0-1.3-1.1-2.4-2.4-2.4H12v1.6h5.5c0.4,0,0.8,0.4,0.8,0.8v4.7
	C18.3,14.8,17.9,15.1,17.5,15.1z"/>
</svg>
