<?xml version="1.0" encoding="utf-8"?>
<!-- Generator: Adobe Illustrator 23.0.0, SVG Export Plug-In . SVG Version: 6.00 Build 0)  -->
<svg version="1.1" id="图层_1" xmlns="http://www.w3.org/2000/svg" xmlns:xlink="http://www.w3.org/1999/xlink" x="0px" y="0px"
	 viewBox="0 0 22 22" style="enable-background:new 0 0 22 22;" xml:space="preserve">
<style type="text/css">
	.st0{fill:#808080;}
</style>
<path class="st0" d="M3,3v3v10v3h16v-3V6V3H3z M4,4h4v4.7C5.6,8.2,4,7.2,4,6V4z M9,4h4v4.9C12.4,9,11.7,9,11,9c-0.7,0-1.4,0-2-0.1V4
	z M14,4h4v2c0,1.2-1.6,2.2-4,2.7V4z M4,7.9c0.9,0.8,2.3,1.4,4,1.8v2.6c-1.7,0.3-3.1,1-4,1.8V7.9z M18,7.9v6.1
	c-0.9-0.8-2.3-1.4-4-1.8V9.7C15.7,9.4,17.1,8.7,18,7.9z M9,9.9C9.7,10,10.3,10,11,10c0.7,0,1.3,0,2-0.1v2.3C12.3,12,11.7,12,11,12
	c-0.7,0-1.3,0-2,0.1V9.9z M11,13c0.7,0,1.4,0,2,0.1V18H9v-4.9C9.6,13,10.3,13,11,13z M8,13.3V18H4v-2C4,14.8,5.6,13.8,8,13.3z
	 M14,13.3c2.4,0.5,4,1.5,4,2.7v2h-4V13.3z"/>
</svg>
