<?xml version="1.0" encoding="utf-8"?>
<!-- Generator: Adobe Illustrator 23.0.0, SVG Export Plug-In . SVG Version: 6.00 Build 0)  -->
<svg version="1.1" id="图层_1" xmlns="http://www.w3.org/2000/svg" xmlns:xlink="http://www.w3.org/1999/xlink" x="0px" y="0px"
	 viewBox="0 0 16 16" style="enable-background:new 0 0 16 16;" xml:space="preserve">
<style type="text/css">
	.st0{fill:#808080;}
</style>
<path class="st0" d="M3.3,3h1.5C4.9,3,5,3.1,5,3.3v1.5C5,4.9,4.9,5,4.8,5H3.3C3.1,5,3,4.9,3,4.8V3.3C3,3.1,3.1,3,3.3,3z M7.3,3h1.5
	C8.9,3,9,3.1,9,3.3v1.5C9,4.9,8.9,5,8.8,5H7.3C7.1,5,7,4.9,7,4.8V3.3C7,3.1,7.1,3,7.3,3z M11.3,3h1.5C12.9,3,13,3.1,13,3.3v1.5
	C13,4.9,12.9,5,12.8,5h-1.5C11.1,5,11,4.9,11,4.8V3.3C11,3.1,11.1,3,11.3,3z M11.3,7h1.5C12.9,7,13,7.1,13,7.3v1.5
	C13,8.9,12.9,9,12.8,9h-1.5C11.1,9,11,8.9,11,8.8V7.3C11,7.1,11.1,7,11.3,7z M7.3,7h1.5C8.9,7,9,7.1,9,7.3v1.5C9,8.9,8.9,9,8.8,9
	H7.3C7.1,9,7,8.9,7,8.8V7.3C7,7.1,7.1,7,7.3,7z M3.3,7h1.5C4.9,7,5,7.1,5,7.3v1.5C5,8.9,4.9,9,4.8,9H3.3C3.1,9,3,8.9,3,8.8V7.3
	C3,7.1,3.1,7,3.3,7z M3.3,11h1.5C4.9,11,5,11.1,5,11.3v1.5C5,12.9,4.9,13,4.8,13H3.3C3.1,13,3,12.9,3,12.8v-1.5
	C3,11.1,3.1,11,3.3,11z M7.3,11h1.5C8.9,11,9,11.1,9,11.3v1.5C9,12.9,8.9,13,8.8,13H7.3C7.1,13,7,12.9,7,12.8v-1.5
	C7,11.1,7.1,11,7.3,11z M11.3,11h1.5c0.1,0,0.3,0.1,0.3,0.3v1.5c0,0.1-0.1,0.3-0.3,0.3h-1.5c-0.1,0-0.3-0.1-0.3-0.3v-1.5
	C11,11.1,11.1,11,11.3,11z"/>
</svg>
