<?xml version="1.0" encoding="utf-8"?>
<!-- Generator: Adobe Illustrator 23.0.0, SVG Export Plug-In . SVG Version: 6.00 Build 0)  -->
<svg version="1.1" id="图层_1" xmlns="http://www.w3.org/2000/svg" xmlns:xlink="http://www.w3.org/1999/xlink" x="0px" y="0px"
	 viewBox="0 0 16 16" style="enable-background:new 0 0 16 16;" xml:space="preserve">
<style type="text/css">
	.st0{fill:#808080;stroke:#808080;stroke-width:0.25;stroke-miterlimit:10;}
</style>
<path class="st0" d="M12.4,4.9c0-0.9-0.7-1.5-1.5-1.5S9.4,4,9.4,4.9s0.7,1.5,1.5,1.5S12.4,5.7,12.4,4.9z M12.4,11.1
	c0-0.9-0.7-1.5-1.5-1.5s-1.5,0.7-1.5,1.5c0,0.9,0.7,1.5,1.5,1.5S12.4,12,12.4,11.1z M11.7,4.9c0,0.5-0.4,0.9-0.9,0.9
	S9.9,5.4,9.9,4.9s0.4-0.9,0.9-0.9C11.3,3.9,11.7,4.3,11.7,4.9z M11.7,11.1c0,0.5-0.4,0.9-0.9,0.9s-0.9-0.4-0.9-0.9s0.4-0.9,0.9-0.9
	C11.3,10.2,11.7,10.6,11.7,11.1z M9.1,6.2C8.9,6,8.9,5.9,8.8,5.6L6.4,7C6,6.6,5.6,6.5,5.2,6.5C4.3,6.5,3.6,7.1,3.6,8
	s0.7,1.5,1.5,1.5C5.6,9.5,6,9.3,6.3,9l2.4,1.4C8.8,10.2,8.9,10,9,9.9L6.6,8.5C6.7,8.3,6.7,8.2,6.7,8s0-0.3-0.1-0.5L9.1,6.2z M6.1,8
	c0,0.5-0.4,0.9-0.9,0.9S4.3,8.5,4.3,8s0.4-0.9,0.9-0.9S6.1,7.5,6.1,8z"/>
</svg>
