<?xml version="1.0" encoding="utf-8"?>
<!-- Generator: Adobe Illustrator 23.0.0, SVG Export Plug-In . SVG Version: 6.00 Build 0)  -->
<svg version="1.1" id="图层_1" xmlns="http://www.w3.org/2000/svg" xmlns:xlink="http://www.w3.org/1999/xlink" x="0px" y="0px"
	 viewBox="0 0 22 22" style="enable-background:new 0 0 22 22;" xml:space="preserve">
<style type="text/css">
	.st0{fill:#808080;}
</style>
<path class="st0" d="M3,3v4h1V4h3V3H3z M15,3v1h3v3h1V3H15z M7.5,5C6.1,5,5,6.1,5,7.5S6.1,10,7.5,10S10,8.9,10,7.5S8.9,5,7.5,5z
	 M12,5v5h5V5H12z M6,12v5h3v-5H6z M14.5,12L12,17h5L14.5,12z M3,15v4h4v-1H4v-3H3z M18,15v3h-3v1h4v-4H18z"/>
</svg>
