<?xml version="1.0" encoding="utf-8"?>
<!-- Generator: Adobe Illustrator 23.0.0, SVG Export Plug-In . SVG Version: 6.00 Build 0)  -->
<svg version="1.1" id="图层_1" xmlns="http://www.w3.org/2000/svg" xmlns:xlink="http://www.w3.org/1999/xlink" x="0px" y="0px"
	 viewBox="0 0 22 22" style="enable-background:new 0 0 22 22;" xml:space="preserve">
<style type="text/css">
	.st0{fill:#808080;}
</style>
<path class="st0" d="M6.2,2C5.9,1.9,5.6,2.3,5.5,2.9c-0.1,0.5,0,3.3,0.1,3.7c0.1,0.2,0,0.3-0.5,0.5C4.5,7.4,3.5,8.3,3.2,8.9
	C3.1,9.2,3,9.5,3,9.8c0,0.4,0.1,0.6,0.4,0.9c0.4,0.4,0.9,0.6,1.9,0.7c0.3,0,0.7,0.1,0.7,0.2c0.3,0.2,0.6,0.9,0.7,1.7
	C6.8,13.9,7,14.5,7.2,15c0.4,0.8,0.4,0.8,0.3,1.9c0,0.6-0.1,1.4-0.2,1.9c-0.1,0.7-0.1,0.8,0.1,1c0.3,0.3,1.1,0.3,1.3-0.1
	c0.2-0.3,0.4-1,0.5-1.8l0.1-0.4l0.5,0.3c0.3,0.1,0.6,0.4,0.7,0.6l0.2,0.3h-0.3c-0.4,0-0.8,0.3-0.8,0.7C9.6,20,10,20,10,20h6
	c1,0,1.1-0.2,1.1-1.1c0-0.3,0.1-0.3,0.5-0.5c1-0.3,1.6-1.3,1.3-2c-0.2-0.4-0.7-0.7-1.1-0.6c-0.2,0-0.3,0-0.4-0.7
	c-0.2-1.6-0.8-2.6-2-3.4c-0.8-0.6-1.8-0.8-3.4-0.9c-1.5-0.1-2-0.3-2.5-0.9C9.4,9.7,9.3,9.4,9.2,9.2C9.1,8.2,8.9,7.9,8.5,7.4L8,7
	l0.2-0.6c0.6-1.8,0.7-4.3,0.2-4.3c-0.3,0-0.8,0.8-1.1,1.8L7.1,4.4L6.9,3.7C6.7,2.9,6.4,2.1,6.2,2z M5.5,8C5.8,8,6,8.2,6,8.5
	S5.8,9,5.5,9S5,8.8,5,8.5S5.2,8,5.5,8z"/>
</svg>
