<?xml version="1.0" encoding="utf-8"?>
<!-- Generator: Adobe Illustrator 23.0.0, SVG Export Plug-In . SVG Version: 6.00 Build 0)  -->
<svg version="1.1" id="图层_1" xmlns="http://www.w3.org/2000/svg" xmlns:xlink="http://www.w3.org/1999/xlink" x="0px" y="0px"
	 viewBox="0 0 22 22" style="enable-background:new 0 0 22 22;" xml:space="preserve">
<style type="text/css">
	.st0{fill:#808080;}
	.st1{fill:#3DAEE9;}
</style>
<path class="st0" d="M4.1,4.1v13.8h13.8V4.1H4.1z M5,5h3.5v3.5H5V5z M9.3,5h3.5v3.5H9.3V5z M13.6,5H17v3.5h-3.5V5H13.6z M5,9.3h3.5
	v3.5H5V9.3z M9.3,9.3h3.5v3.5H9.3V9.3z M13.6,9.3H17v3.5h-3.5V9.3H13.6z M5,13.6h3.5V17H5V13.6z M9.3,13.6h3.5V17H9.3V13.6z
	 M13.6,13.6H17V17h-3.5v-3.4H13.6z"/>
<rect x="5" y="8.5" class="st1" width="12" height="0.8"/>
<rect x="5" y="12.8" class="st1" width="12" height="0.8"/>
<rect x="8.5" y="5" class="st1" width="0.8" height="12"/>
<rect x="12.7" y="5" class="st1" width="0.8" height="12"/>
</svg>
