<?xml version="1.0" encoding="utf-8"?>
<!-- Generator: Adobe Illustrator 23.0.0, SVG Export Plug-In . SVG Version: 6.00 Build 0)  -->
<svg version="1.1" id="图层_1" xmlns="http://www.w3.org/2000/svg" xmlns:xlink="http://www.w3.org/1999/xlink" x="0px" y="0px"
	 viewBox="0 0 22 22" style="enable-background:new 0 0 22 22;" xml:space="preserve">
<style type="text/css">
	.st0{fill:#808080;}
</style>
<path class="st0" d="M5,3C3.9,3,3,3.9,3,5v12c0,1.1,0.9,2,2,2h12c1.1,0,2-0.9,2-2V7l-4-4H5z M5,4h2v3c0,1.1,0.9,2,2,2h4
	c1.1,0,2-0.9,2-2V4.4l3,3V17c0,0.6-0.4,1-1,1v-2c0-1.1-0.9-2-2-2H7c-1.1,0-2,0.9-2,2v2c-0.6,0-1-0.4-1-1V5C4,4.4,4.4,4,5,4z M8,4h3
	v4H9C8.4,8,8,7.6,8,7V4z M7,15h8c0.6,0,1,0.4,1,1v2H6v-2C6,15.4,6.4,15,7,15z"/>
</svg>
