<?xml version="1.0" encoding="utf-8"?>
<!-- Generator: Adobe Illustrator 23.0.0, SVG Export Plug-In . SVG Version: 6.00 Build 0)  -->
<svg version="1.1"
	 id="svg14" inkscape:version="1.0.2 (1.0.2+r75+1)" sodipodi:docname="screenshoot.svg" xmlns:cc="http://creativecommons.org/ns#" xmlns:dc="http://purl.org/dc/elements/1.1/" xmlns:inkscape="http://www.inkscape.org/namespaces/inkscape" xmlns:rdf="http://www.w3.org/1999/02/22-rdf-syntax-ns#" xmlns:sodipodi="http://sodipodi.sourceforge.net/DTD/sodipodi-0.dtd" xmlns:svg="http://www.w3.org/2000/svg"
	 xmlns="http://www.w3.org/2000/svg" xmlns:xlink="http://www.w3.org/1999/xlink" x="0px" y="0px" viewBox="0 0 16 16"
	 style="enable-background:new 0 0 16 16;" xml:space="preserve">
<style type="text/css">
	.st0{fill:#808080;}
</style>
<sodipodi:namedview  bordercolor="#666666" borderopacity="1" gridtolerance="10" guidetolerance="10" id="namedview10" inkscape:current-layer="svg14" inkscape:cx="1.8011787" inkscape:cy="8.2000641" inkscape:document-rotation="0" inkscape:pageopacity="0" inkscape:pageshadow="2" inkscape:window-height="480" inkscape:window-maximized="0" inkscape:window-width="771" inkscape:window-x="814" inkscape:window-y="282" inkscape:zoom="8.9714173" objecttolerance="10" pagecolor="#ffffff" showgrid="false">
	</sodipodi:namedview>
<g id="g12" transform="matrix(0.86017489,0,0,0.86036053,1.1186009,1.1171158)">
	<path id="path4" class="st0" d="M3.2,1.3c-1.1,0-1.9,0.8-1.9,1.9v1.9h1V3.2c0-0.5,0.4-1,1-1h1.9v-1L3.2,1.3L3.2,1.3z M10.9,1.3v1
		h1.9c0.5,0,1,0.4,1,1v1.9h1v-2c0-1.1-0.8-1.9-1.9-1.9C12.9,1.3,10.9,1.3,10.9,1.3z M1.3,10.9v1.9c0,1.1,0.8,1.9,1.9,1.9h1.9v-1H3.2
		c-0.5,0-1-0.4-1-1v-1.9H1.3V10.9z M13.7,10.9v1.9c0,0.5-0.4,1-1,1h-1.9v1h1.9c1.1,0,1.9-0.8,1.9-1.9V11h-0.9V10.9z"/>
	<path id="path6" class="st0" d="M5.1,5.1C4.1,5.1,3.2,6,3.2,7v2.9c0,1.1,0.8,1.9,1.9,1.9h5.7c1.1,0,1.9-0.8,1.9-1.9V7
		c0-1.1-0.8-1.9-1.9-1.9H5.1z M5.1,6.1h5.7c0.5,0,1,0.4,1,1V10c0,0.5-0.4,1-1,1H5.1c-0.5,0-1-0.4-1-1V7C4.2,6.5,4.6,6.1,5.1,6.1z"/>
	<path id="path8" class="st0" d="M9.4,7C8.6,7,8,7.7,8,8.5c0,0.8,0.6,1.4,1.4,1.4s1.4-0.6,1.4-1.4C10.8,7.7,10.2,7,9.4,7z M9.4,8
		L9.4,8c0.3,0,0.5,0.2,0.5,0.5C9.9,8.7,9.7,9,9.4,9C9.2,9,9,8.7,9,8.5C9,8.2,9.2,8,9.4,8z"/>
	<rect id="rect10" x="9" y="3.2" class="st0" width="1.9" height="1"/>
</g>
</svg>
