<?xml version="1.0" encoding="utf-8"?>
<!-- Generator: Adobe Illustrator 23.0.0, SVG Export Plug-In . SVG Version: 6.00 Build 0)  -->
<svg version="1.1" id="图层_1" xmlns="http://www.w3.org/2000/svg" xmlns:xlink="http://www.w3.org/1999/xlink" x="0px" y="0px"
	 viewBox="0 0 22 22" style="enable-background:new 0 0 22 22;" xml:space="preserve">
<style type="text/css">
	.st0{fill:#3DAEE9;}
	.st1{fill:#808080;}
</style>
<path class="st0" d="M4,4.9v4.7c0,0.5,0.4,0.8,0.8,0.8h4.5c0.5,0,0.8-0.4,0.8-0.8V4.9C10.2,4.4,9.9,4,9.4,4H4.9C4.4,4,4,4.4,4,4.9z
	 M5.6,4.8h2.9c0.5,0,0.8,0.4,0.8,0.8v3c0,0.5-0.4,0.8-0.8,0.8H5.6C5.1,9.4,4.8,9,4.8,8.6v-3C4.8,5.2,5.2,4.8,5.6,4.8z M11.8,12.5
	v4.7c0,0.5,0.4,0.8,0.8,0.8h4.5c0.5,0,0.8-0.4,0.8-0.8v-4.7c0-0.5-0.4-0.8-0.8-0.8h-4.5C12.2,11.7,11.8,12.1,11.8,12.5z M13.6,12.6
	h2.7c0.5,0,0.8,0.4,0.8,0.8v2.9c0,0.5-0.4,0.8-0.8,0.8h-2.7c-0.5,0-0.8-0.4-0.8-0.8v-2.9C12.8,13,13.1,12.6,13.6,12.6z"/>
<path class="st1" d="M4,12.5v4.7C4,17.7,4.3,18,4.8,18h4.5c0.5,0,0.8-0.4,0.8-0.8v-4.7c0-0.5-0.4-0.8-0.8-0.8H4.8
	C4.3,11.7,4,12.1,4,12.5z M5.7,12.6h2.8c0.5,0,0.8,0.4,0.8,0.8v2.9c0,0.5-0.4,0.8-0.8,0.8H5.7c-0.5,0-0.8-0.4-0.8-0.8v-2.9
	C4.8,13,5.2,12.6,5.7,12.6z"/>
<path class="st1" d="M11.8,4.8v4.7c0,0.5,0.4,0.8,0.8,0.8h4.5c0.5,0,0.8-0.4,0.8-0.8V4.8C18,4.3,17.7,4,17.2,4h-4.5
	C12.2,4,11.8,4.3,11.8,4.8z M13.5,4.9h2.8c0.5,0,0.8,0.4,0.8,0.8v2.9c0,0.5-0.4,0.8-0.8,0.8h-2.8c-0.5,0-0.8-0.4-0.8-0.8V5.7
	C12.7,5.2,13.1,4.9,13.5,4.9z"/>
</svg>
