<?xml version="1.0" encoding="utf-8"?>
<!-- Generator: Adobe Illustrator 23.0.0, SVG Export Plug-In . SVG Version: 6.00 Build 0)  -->
<svg version="1.1" id="图层_1" xmlns="http://www.w3.org/2000/svg" xmlns:xlink="http://www.w3.org/1999/xlink" x="0px" y="0px"
	 viewBox="0 0 22 22" style="enable-background:new 0 0 22 22;" xml:space="preserve">
<style type="text/css">
	.st0{fill:#3DAEE9;}
	.st1{fill:#363636;}
</style>
<path class="st0" d="M3,3.2v7.1h7.1V3.2H3z M11.9,3.2v7.1H19V3.2H11.9z M3.9,4.1h5.2v5.2H3.9V4.1z M12.9,4.1H18v5.2h-5.1V4.1z
	 M3,11.8v7.1h7.1v-7.1H3z M11.9,11.8v7.1H19v-7.1H11.9z M4,12.8h5.1v5.1H4V12.8z M13,12.8H18v5.1H13V12.8z"/>
<rect x="4.4" y="4.6" class="st1" width="0.9" height="0.9"/>
<rect x="6.1" y="4.6" class="st1" width="0.9" height="0.9"/>
<rect x="7.8" y="4.6" class="st1" width="0.9" height="0.9"/>
<rect x="4.4" y="6.2" class="st1" width="0.9" height="0.9"/>
<rect x="6" y="6.2" class="st1" width="0.9" height="0.9"/>
<rect x="7.7" y="6.2" class="st1" width="0.9" height="0.9"/>
<rect x="4.4" y="7.9" class="st1" width="0.9" height="0.9"/>
<rect x="6" y="7.9" class="st1" width="0.9" height="0.9"/>
<rect x="7.7" y="7.9" class="st1" width="0.9" height="0.9"/>
<rect x="13.4" y="4.7" class="st1" width="0.9" height="0.9"/>
<rect x="15.1" y="4.7" class="st1" width="0.9" height="0.9"/>
<rect x="16.7" y="4.7" class="st1" width="0.9" height="0.9"/>
<rect x="13.4" y="6.3" class="st1" width="0.9" height="0.9"/>
<rect x="15" y="6.3" class="st1" width="0.9" height="0.9"/>
<rect x="16.7" y="6.3" class="st1" width="0.9" height="0.9"/>
<rect x="13.4" y="7.9" class="st1" width="0.9" height="0.9"/>
<rect x="15" y="7.9" class="st1" width="0.9" height="0.9"/>
<rect x="16.7" y="7.9" class="st1" width="0.9" height="0.9"/>
<rect x="4.5" y="13.2" class="st1" width="0.9" height="0.9"/>
<rect x="6.1" y="13.2" class="st1" width="0.9" height="0.9"/>
<rect x="7.8" y="13.2" class="st1" width="0.9" height="0.9"/>
<rect x="4.5" y="14.8" class="st1" width="0.9" height="0.9"/>
<rect x="6.1" y="14.8" class="st1" width="0.9" height="0.9"/>
<rect x="7.8" y="14.8" class="st1" width="0.9" height="0.9"/>
<rect x="4.5" y="16.5" class="st1" width="0.9" height="0.9"/>
<rect x="6.1" y="16.5" class="st1" width="0.9" height="0.9"/>
<rect x="7.8" y="16.5" class="st1" width="0.9" height="0.9"/>
<rect x="13.4" y="13.3" class="st1" width="0.9" height="0.9"/>
<rect x="15" y="13.3" class="st1" width="0.9" height="0.9"/>
<rect x="16.7" y="13.3" class="st1" width="0.9" height="0.9"/>
<rect x="13.3" y="14.9" class="st1" width="0.9" height="0.9"/>
<rect x="15" y="14.9" class="st1" width="0.9" height="0.9"/>
<rect x="16.7" y="14.9" class="st1" width="0.9" height="0.9"/>
<rect x="13.3" y="16.5" class="st1" width="0.9" height="0.9"/>
<rect x="15" y="16.5" class="st1" width="0.9" height="0.9"/>
<rect x="16.7" y="16.5" class="st1" width="0.9" height="0.9"/>
</svg>
