<?xml version="1.0" encoding="utf-8"?>
<!-- Generator: Adobe Illustrator 23.0.0, SVG Export Plug-In . SVG Version: 6.00 Build 0)  -->
<svg version="1.1" id="图层_1" xmlns="http://www.w3.org/2000/svg" xmlns:xlink="http://www.w3.org/1999/xlink" x="0px" y="0px"
	 viewBox="0 0 16 16" style="enable-background:new 0 0 16 16;" xml:space="preserve">
<style type="text/css">
	.st0{fill:#808080;}
</style>
<path class="st0" d="M6.5,1.8c-0.1,0-0.1,0-0.2,0C6.1,1.8,6,2,6,2.3l0.1,0.4C5.8,2.8,5.5,2.9,5.2,3.1l0,0l0,0
	C4.9,3.3,4.6,3.5,4.3,3.7L4,3.4c-0.2-0.2-0.4-0.2-0.6,0C3.3,3.6,3.3,3.9,3.4,4l0.3,0.3C3.5,4.6,3.3,4.9,3.1,5.2
	c-0.2,0.3-0.3,0.6-0.4,1L2.3,6C2,6,1.8,6.1,1.8,6.3c-0.1,0.2,0,0.5,0.3,0.5l0.4,0.1C2.4,7.6,2.4,8.3,2.5,9L2.1,9.2
	c-0.3,0-0.4,0.3-0.3,0.5C1.8,9.9,2,10,2.3,10l0.4-0.1c0.2,0.7,0.6,1.3,1.1,1.8L3.4,12c-0.2,0.2-0.2,0.4,0,0.6c0.2,0.2,0.4,0.2,0.6,0
	l0.3-0.3c0.3,0.2,0.6,0.4,0.9,0.6c0.3,0.2,0.6,0.3,1,0.4L6,13.7c0,0.3,0.1,0.5,0.3,0.5c0.2,0.1,0.4-0.1,0.5-0.3l0.1-0.4
	c0.7,0.1,1.4,0.1,2.1,0l0.1,0.4c0.1,0.2,0.3,0.3,0.5,0.3c0.3,0,0.4-0.2,0.4-0.5l-0.1-0.4c0.7-0.2,1.3-0.6,1.8-1.1l0.3,0.3
	c0.2,0.2,0.4,0.2,0.6,0c0.2-0.2,0.2-0.4,0-0.6l-0.3-0.3c0.2-0.3,0.4-0.6,0.6-0.9c0.2-0.3,0.3-0.6,0.4-1l0.4,0.1
	c0.2,0.1,0.4-0.1,0.5-0.3S14.1,9.1,13.9,9l-0.4-0.1c0.1-0.3,0.1-0.7,0.1-1l0,0l0,0c0-0.3,0-0.7-0.1-1l0.4-0.1
	c0.2-0.1,0.3-0.3,0.3-0.5S14,6,13.7,6l-0.4,0.1c-0.2-0.7-0.6-1.3-1.1-1.8L12.6,4c0.2-0.2,0.2-0.4,0-0.6c-0.2-0.2-0.4-0.2-0.6,0
	l-0.3,0.3c-0.3-0.2-0.6-0.4-0.9-0.6c-0.3-0.2-0.6-0.3-1-0.4L10,2.3C10,2,9.9,1.8,9.7,1.8c-0.2-0.1-0.5,0-0.5,0.3L9.1,2.5
	C8.4,2.4,7.7,2.4,7,2.5L6.8,2.1C6.8,1.9,6.6,1.8,6.5,1.8L6.5,1.8z M7.8,3.2c0.9,0,1.8,0.2,2.6,0.6c1.4,0.8,2.3,2.2,2.4,3.8H9.6
	C9.4,6.9,8.7,6.4,8,6.4c-0.1,0-0.3,0-0.4,0.1L5.9,3.6C6.5,3.4,7.1,3.2,7.8,3.2L7.8,3.2z M5.2,4l1.6,2.8C6.6,7.2,6.4,7.6,6.4,8
	c0,0.4,0.2,0.8,0.5,1.1L5.2,12c-2.1-1.4-2.7-4.2-1.4-6.4C4.2,5,4.7,4.4,5.2,4L5.2,4z M8,7.2c0.4,0,0.8,0.4,0.8,0.8
	c0,0.4-0.4,0.8-0.8,0.8C7.6,8.8,7.2,8.4,7.2,8S7.6,7.2,8,7.2z M9.6,8.4h3.3c-0.1,0.7-0.3,1.4-0.6,2c-1.3,2.2-4,3-6.3,2l1.6-2.8
	c0.1,0,0.3,0.1,0.4,0.1C8.7,9.6,9.4,9.1,9.6,8.4L9.6,8.4z"/>
</svg>
