<?xml version="1.0" encoding="utf-8"?>
<!-- Generator: Adobe Illustrator 23.0.0, SVG Export Plug-In . SVG Version: 6.00 Build 0)  -->
<svg version="1.1" id="图层_1" xmlns="http://www.w3.org/2000/svg" xmlns:xlink="http://www.w3.org/1999/xlink" x="0px" y="0px"
	 viewBox="0 0 16 16" style="enable-background:new 0 0 16 16;" xml:space="preserve">
<style type="text/css">
	.st0{fill-rule:evenodd;clip-rule:evenodd;fill:#808080;}
</style>
<path class="st0" d="M2.6,3.3c-0.5,0-0.8,0.3-0.8,0.8v7.8c0,0.4,0.4,0.8,0.8,0.8h10.7c0.5,0,0.8-0.3,0.8-0.8V4.1
	c0-0.4-0.4-0.8-0.8-0.8H2.6z M3.2,4.1h9.6c0.3,0,0.6,0.2,0.6,0.6v6.7c0,0.3-0.2,0.6-0.6,0.6H3.2c-0.3,0-0.6-0.2-0.6-0.6V4.6
	C2.6,4.3,2.9,4.1,3.2,4.1z"/>
<path class="st0" d="M4,4.9h0.5c0.3,0,0.6,0.2,0.6,0.6V6c0,0.3-0.2,0.6-0.6,0.6H4C3.7,6.6,3.4,6.4,3.4,6V5.4C3.5,5.1,3.7,4.9,4,4.9z
	 M6.5,4.9H7c0.3,0,0.6,0.2,0.6,0.6V6c0,0.3-0.2,0.6-0.6,0.6H6.5C6.2,6.6,5.9,6.4,5.9,6V5.4C5.9,5.1,6.2,4.9,6.5,4.9z M9,4.9h0.5
	c0.3,0,0.6,0.2,0.6,0.6V6c0,0.3-0.2,0.6-0.6,0.6H9C8.7,6.6,8.4,6.4,8.4,6V5.4C8.4,5.1,8.7,4.9,9,4.9z M11.4,4.9H12
	c0.3,0,0.6,0.2,0.6,0.6V6c0,0.3-0.2,0.6-0.6,0.6h-0.5c-0.3,0-0.6-0.2-0.6-0.6V5.4C10.9,5.1,11.1,4.9,11.4,4.9z M4,7.2h0.5
	c0.3,0,0.6,0.2,0.6,0.6v0.5c0,0.3-0.2,0.6-0.6,0.6H4c-0.3,0-0.6-0.2-0.6-0.6V7.8C3.5,7.5,3.7,7.2,4,7.2z M6.5,7.2H7
	c0.3,0,0.6,0.2,0.6,0.6v0.5c0,0.3-0.2,0.6-0.6,0.6H6.5c-0.3,0-0.6-0.2-0.6-0.6V7.8C5.9,7.5,6.2,7.2,6.5,7.2z M9,7.2h0.5
	c0.3,0,0.6,0.2,0.6,0.6v0.5c0,0.3-0.2,0.6-0.6,0.6H9c-0.3,0-0.6-0.2-0.6-0.6V7.8C8.4,7.5,8.7,7.2,9,7.2z M11.4,7.2H12
	c0.3,0,0.6,0.2,0.6,0.6v0.5c0,0.3-0.2,0.6-0.6,0.6h-0.5c-0.3,0-0.6-0.2-0.6-0.6V7.8C10.9,7.5,11.1,7.2,11.4,7.2z M5.7,9.6h4.7
	c0.3,0,0.6,0.2,0.6,0.6v0.5c0,0.3-0.2,0.6-0.6,0.6H5.7c-0.3,0-0.6-0.2-0.6-0.6v-0.5C5.1,9.8,5.4,9.6,5.7,9.6z"/>
</svg>
