<?xml version="1.0" encoding="utf-8"?>
<!-- Generator: Adobe Illustrator 23.0.0, SVG Export Plug-In . SVG Version: 6.00 Build 0)  -->
<svg version="1.1" id="图层_1" xmlns="http://www.w3.org/2000/svg" xmlns:xlink="http://www.w3.org/1999/xlink" x="0px" y="0px"
	 viewBox="0 0 22 22" style="enable-background:new 0 0 22 22;" xml:space="preserve">
<style type="text/css">
	.st0{fill:#009900;}
	.st1{fill:#808080;}
</style>
<path class="st0" d="M9.8,4.4v4.8c0,0.5-0.4,0.9-0.9,0.9H4.3c-0.5,0-0.8-0.4-0.8-0.9V4.4c0-0.5,0.4-0.9,0.9-0.9h4.7
	C9.4,3.6,9.8,4,9.8,4.4z M8.1,4.5H5.2c-0.5,0-0.9,0.4-0.9,0.8v2.9c0,0.5,0.4,0.9,0.9,0.9h2.9C8.6,9.1,9,8.7,9,8.2V5.3
	C8.9,4.9,8.5,4.5,8.1,4.5z"/>
<path class="st1" d="M18.5,11.3v6.1c0,0.6-0.5,1.1-1.1,1.1h-5.9c-0.6,0-1.1-0.5-1.1-1.1v-6.1c0-0.6,0.5-1.1,1.1-1.1h5.9
	C18.1,10.3,18.5,10.7,18.5,11.3z M16.3,11.4h-3.6c-0.6,0-1.1,0.5-1.1,1.1v3.8c0,0.6,0.5,1.1,1.1,1.1h3.6c0.6,0,1.1-0.5,1.1-1.1v-3.8
	C17.4,11.9,16.9,11.4,16.3,11.4z"/>
<path class="st1" d="M10.9,4.3c2.8,0,5.2,2.1,5.6,5h-0.8h-2.4l0.9-0.8h1.3c-0.7-2-2.6-3.4-4.6-3.4V4.3z"/>
<path class="st1" d="M9.6,16.1c-2.8,0-5.2-2.1-5.6-5h0.8h2.4l-0.9,0.8H5.1c0.6,1.9,2.5,3.3,4.5,3.3V16.1z"/>
</svg>
