<?xml version="1.0" encoding="utf-8"?>
<!-- Generator: Adobe Illustrator 23.0.0, SVG Export Plug-In . SVG Version: 6.00 Build 0)  -->
<svg version="1.1" id="图层_1" xmlns="http://www.w3.org/2000/svg" xmlns:xlink="http://www.w3.org/1999/xlink" x="0px" y="0px"
	 viewBox="0 0 22 22" style="enable-background:new 0 0 22 22;" xml:space="preserve">
<style type="text/css">
	.st0{fill:#3DAEE9;}
	.st1{fill:#808080;}
</style>
<path class="st0" d="M18.7,3.6L8,13.4V14h0.8l10.5-9.6L18.7,3.6z"/>
<path class="st1" d="M4,3v14H3v1h1v1h1v-1h14v-1H5V3H4z M11.5,4v1h1V4H11.5z M12.5,5v1h1V5H12.5z M12.5,6h-1v1h1V6z M11.5,6V5h-1v1
	H11.5z M17,8v1h1V8H17z M18,9v1h1V9H18z M18,10h-1v1h1V10z M17,10V9h-1v1H17z M13,11v1h1v-1H13z M14,12v1h1v-1H14z M14,13h-1v1h1V13
	z M13,13v-1h-1v1H13z M7,13v1h1v-1H7z M8,14v1h1v-1H8z M8,15H7v1h1V15z M7,15v-1H6v1H7z"/>
</svg>
