<?xml version="1.0" encoding="utf-8"?>
<!-- Generator: Adobe Illustrator 23.0.0, SVG Export Plug-In . SVG Version: 6.00 Build 0)  -->
<svg version="1.1" id="图层_1" xmlns="http://www.w3.org/2000/svg" xmlns:xlink="http://www.w3.org/1999/xlink" x="0px" y="0px"
	 viewBox="0 0 22 22" style="enable-background:new 0 0 22 22;" xml:space="preserve">
<style type="text/css">
	.st0{fill:#808080;}
</style>
<path class="st0" d="M6.5,3l2.9,1.3C8.9,5.2,8.3,6.1,7.6,6.8L3.8,3H3V4l3.7,3.7C6,8.3,5.2,8.8,4.4,9.3L3.6,7.5v0L3,6.2l0,3l0.2,0.5
	C3.2,9.8,3.1,9.8,3,9.9v1.3c0.3-0.1,0.5-0.2,0.7-0.3l1.9,4.4c-0.9,0.3-1.8,0.6-2.7,0.8v1.3c1.1-0.2,2.2-0.6,3.2-1l1.1,2.6h1.3
	l-1.3-3c1.7-0.8,3.2-1.8,4.6-3.1l3.4,3.4c-1.1,1-2.3,2-3.6,2.8h2.2c0.8-0.6,1.6-1.2,2.3-1.9l1.9,1.9l0.9,0l0-0.9l-1.9-1.9
	c0.7-0.7,1.3-1.4,1.9-2.2v-2.1c-0.8,1.3-1.8,2.4-2.8,3.5l-3.4-3.4c1.3-1.4,2.5-3,3.3-4.7l2.9,1.3l0-1.3l-2.4-1c0.4-1,0.7-2,1-3.1
	h-1.3c-0.2,0.9-0.5,1.8-0.8,2.6L11,3.7c0.1-0.2,0.2-0.4,0.3-0.7H10c0,0.1-0.1,0.1-0.1,0.2L9.4,3H6.5z M10.6,4.8l4.4,1.9
	c-0.8,1.6-1.8,3.1-3.1,4.4L8.5,7.7C9.3,6.8,10,5.8,10.6,4.8z M7.6,8.5l3.4,3.4c-1.3,1.1-2.7,2.1-4.2,2.8l-1.9-4.4
	C5.9,9.9,6.8,9.3,7.6,8.5z"/>
</svg>
