<?xml version="1.0" encoding="utf-8"?>
<!-- Generator: Adobe Illustrator 23.0.0, SVG Export Plug-In . SVG Version: 6.00 Build 0)  -->
<svg version="1.1" id="图层_1" xmlns="http://www.w3.org/2000/svg" xmlns:xlink="http://www.w3.org/1999/xlink" x="0px" y="0px"
	 viewBox="0 0 22 22" style="enable-background:new 0 0 22 22;" xml:space="preserve">
<style type="text/css">
	.st0{fill:#363636;}
	.st1{fill:#363636;fill-opacity:0.2;}
	.st2{fill:#363636;fill-opacity:0.4;}
	.st3{fill:#363636;fill-opacity:0.6;}
</style>
<path class="st0" d="M11,2c-0.6,0.4,0,0-0.7,0.4l-7,4.7v1v6.5v0.3c1,0.6,0.2,0.1,0.6,0.4l6.3,4.2c0.8,0.5,0,0,0.8,0.5
	c6.8-4.5,5.2-3.4,7.1-4.7c0.5-0.4,0.1-0.1,0.5-0.4v-0.3v0V8.1v-1c-2-1.3-0.3-0.2-0.5-0.3l-6.5-4.3l-0.3-0.2C11.1,2,12.4,2.9,11,2z
	 M10.6,3.3v6.6L10.5,10l-0.2,0.1l-6.2,4.1V7.5L10.6,3.3z M11.4,3.3l6.4,4.3V14l-6.4-4.3V3.3z M11.1,10.6l6.2,4.2L11,19l-6.3-4.2
	l6.1-4L11.1,10.6z"/>
<path class="st1" d="M10.6,3.2c0,0-1.5,1-3.3,2.2L4.1,7.6v3.4c0,1.9,0,3.4,0,3.4c0,0,1.5-1,3.3-2.2l3.3-2.2V6.6
	C10.7,4.7,10.7,3.2,10.6,3.2z"/>
<path class="st2" d="M11.1,10.5c-0.1,0-6.5,4.4-6.5,4.4c0,0,1.5,1,3.2,2.2s3.2,2.1,3.2,2.1c0.5-0.4,6.5-4.4,6.5-4.4
	C17.5,14.7,11.1,10.5,11.1,10.5z"/>
<path class="st3" d="M11.4,3.2c0,0,0,1.5,0,3.3l0,3.3l3.3,2.2c1.8,1.2,3.3,2.2,3.3,2.2c0,0,0-1.5,0-3.3V7.5l-3.3-2.2
	C12.8,4.2,11.4,3.2,11.4,3.2z"/>
</svg>
