<?xml version="1.0" encoding="utf-8"?>
<!-- Generator: Adobe Illustrator 23.0.0, SVG Export Plug-In . SVG Version: 6.00 Build 0)  -->
<svg version="1.1" id="图层_1" xmlns="http://www.w3.org/2000/svg" xmlns:xlink="http://www.w3.org/1999/xlink" x="0px" y="0px"
	 viewBox="0 0 22 22" style="enable-background:new 0 0 22 22;" xml:space="preserve">
<style type="text/css">
	.st0{fill:#808080;}
</style>
<path class="st0" d="M11,2.4c-0.6,0.4,0,0-0.7,0.4L3.7,7.3v1v6.2v0.3c1,0.6,0.2,0.1,0.6,0.4l6.1,4c0.8,0.5,0,0,0.8,0.5
	c6.5-4.3,5-3.3,6.8-4.5c0.5-0.4,0.1-0.1,0.5-0.4v-0.3l0,0V8.2v-1C16.4,6,18.1,7.1,17.9,7l-6.2-4.1l-0.3-0.2
	C11.1,2.4,12.4,3.2,11,2.4z M10.7,3.6v6.3L10.6,10l-0.2,0.1l-6,3.9V7.6L10.7,3.6z M11.4,3.6l6.1,4.1v6.1l-6.1-4.1V3.6z M11.1,10.6
	l6,4l-6.1,4l-6.1-4l5.9-3.8L11.1,10.6z"/>
</svg>
