<?xml version="1.0" encoding="utf-8"?>
<!-- Generator: Adobe Illustrator 23.0.0, SVG Export Plug-In . SVG Version: 6.00 Build 0)  -->
<svg version="1.1" id="图层_1" xmlns="http://www.w3.org/2000/svg" xmlns:xlink="http://www.w3.org/1999/xlink" x="0px" y="0px"
	 viewBox="0 0 22 22" style="enable-background:new 0 0 22 22;" xml:space="preserve">
<style type="text/css">
	.st0{fill:none;stroke:#363636;stroke-width:1.25;stroke-linejoin:round;stroke-miterlimit:10;}
	.st1{fill:#363636;}
	.st2{fill:none;stroke:#990000;stroke-width:1.25;stroke-linejoin:round;stroke-miterlimit:10;}
	.st3{fill:#990000;}
</style>
<rect x="3.5" y="3.5" class="st0" width="6.9" height="5.9"/>
<path class="st1" d="M3.9,11c0,3.5,2.6,6.4,6.1,6.9v-1V14H9v2.6c-2.4-0.8-4.1-3.1-4.1-5.6H3.9z M11.9,4.6c3.5,0,6.4,2.6,6.9,6.1h-1
	l-2.9,0v-1h2.6c-0.8-2.4-3.1-4.1-5.6-4.1L11.9,4.6z"/>
<rect x="11.9" y="12.5" class="st2" width="6.9" height="5.9"/>
<rect x="5" y="4.7" class="st1" width="0.7" height="0.7"/>
<rect x="6.6" y="4.7" class="st1" width="0.7" height="0.7"/>
<rect x="8.2" y="4.7" class="st1" width="0.7" height="0.7"/>
<rect x="5" y="6.1" class="st1" width="0.7" height="0.7"/>
<rect x="6.6" y="6.1" class="st1" width="0.7" height="0.7"/>
<rect x="8.2" y="6.1" class="st1" width="0.7" height="0.7"/>
<rect x="5" y="7.5" class="st1" width="0.7" height="0.7"/>
<rect x="6.5" y="7.5" class="st1" width="0.7" height="0.7"/>
<rect x="8.1" y="7.5" class="st1" width="0.7" height="0.7"/>
<rect x="13.4" y="13.7" class="st3" width="0.7" height="0.7"/>
<rect x="15" y="13.7" class="st3" width="0.7" height="0.7"/>
<rect x="16.6" y="13.7" class="st3" width="0.7" height="0.7"/>
<rect x="13.4" y="15.1" class="st3" width="0.7" height="0.7"/>
<rect x="15" y="15.1" class="st3" width="0.7" height="0.7"/>
<rect x="16.6" y="15.1" class="st3" width="0.7" height="0.7"/>
<rect x="13.4" y="16.5" class="st3" width="0.7" height="0.7"/>
<rect x="14.9" y="16.5" class="st3" width="0.7" height="0.7"/>
<rect x="16.6" y="16.5" class="st3" width="0.7" height="0.7"/>
</svg>
