<?xml version="1.0" encoding="utf-8"?>
<!-- Generator: Adobe Illustrator 23.0.0, SVG Export Plug-In . SVG Version: 6.00 Build 0)  -->
<svg version="1.1" id="图层_1" xmlns="http://www.w3.org/2000/svg" xmlns:xlink="http://www.w3.org/1999/xlink" x="0px" y="0px"
	 viewBox="0 0 22 22" style="enable-background:new 0 0 22 22;" xml:space="preserve">
<style type="text/css">
	.st0{fill:#808080;}
</style>
<path class="st0" d="M3,3v16h16V3H3z M4,4h4v4H4V4z M9,4h4v4H9V4z M14,4h4v4h-4V4z M4,9h4v4H4V9z M9,9h4v4H9V9z M14,9h4v4h-4V9z
	 M4,14h4v4H4V14z M9,14h4v4H9V14z M14,14h4v4h-4V14z"/>
</svg>
