<?xml version="1.0" encoding="utf-8"?>
<!-- Generator: Adobe Illustrator 23.0.0, SVG Export Plug-In . SVG Version: 6.00 Build 0)  -->
<svg version="1.1" id="图层_1" xmlns="http://www.w3.org/2000/svg" xmlns:xlink="http://www.w3.org/1999/xlink" x="0px" y="0px"
	 viewBox="0 0 16 16" style="enable-background:new 0 0 16 16;" xml:space="preserve">
<style type="text/css">
	.st0{fill:#808080;}
</style>
<path class="st0" d="M3.2,10.3c0,0.2,0.1,0.4,0.3,0.5C3.7,10.9,3.9,11,4.2,11h7.7c0.2,0,0.5-0.1,0.6-0.2c0.2-0.1,0.3-0.3,0.3-0.5
	s0-0.4-0.2-0.5L8.8,5.3C8.7,5.2,8.5,5.1,8.3,5C8.1,5,7.9,5,7.7,5C7.5,5.1,7.3,5.2,7.2,5.3L3.4,9.8C3.2,9.9,3.2,10.1,3.2,10.3
	L3.2,10.3z"/>
</svg>
