<?xml version="1.0" encoding="utf-8"?>
<!-- Generator: Adobe Illustrator 23.0.0, SVG Export Plug-In . SVG Version: 6.00 Build 0)  -->
<svg version="1.1" id="图层_1" xmlns="http://www.w3.org/2000/svg" xmlns:xlink="http://www.w3.org/1999/xlink" x="0px" y="0px"
	 viewBox="0 0 24 24" style="enable-background:new 0 0 24 24;" xml:space="preserve">
<style type="text/css">
	.st0{fill-rule:evenodd;clip-rule:evenodd;fill:#808080;}
</style>
<path class="st0" d="M11.8,6C11.9,6,12.1,6,12.2,6l5,2.3c0.2,0.1,0.3,0.3,0.3,0.5v5.8c0,0.2-0.1,0.3-0.2,0.4l-5,2.9
	c-0.2,0.1-0.3,0.1-0.5,0l-5-2.9c-0.2-0.1-0.2-0.3-0.2-0.4V8.8c0-0.2,0.1-0.4,0.3-0.5L11.8,6z M7.5,9.6l4,2v5l-4-2.3V9.6z M12.5,16.6
	l4-2.3V9.6l-4,2V16.6z M12,10.8l3.8-1.9L12,7.1L8.2,8.8L12,10.8z"/>
<path class="st0" d="M3.7,4c0-0.3,0.2-0.5,0.5-0.5h3c0.3,0,0.5,0.2,0.5,0.5S7.5,4.5,7.2,4.5H4.7V7c0,0.3-0.2,0.5-0.5,0.5
	S3.7,7.3,3.7,7V4z"/>
<path class="st0" d="M19.6,3.5c0.3,0,0.5,0.2,0.5,0.5v3c0,0.3-0.2,0.5-0.5,0.5S19.1,7.3,19.1,7V4.5h-2.5c-0.3,0-0.5-0.2-0.5-0.5
	s0.2-0.5,0.5-0.5H19.6z"/>
<path class="st0" d="M4.2,20.6c-0.3,0-0.5-0.2-0.5-0.5v-3c0-0.3,0.2-0.5,0.5-0.5s0.5,0.2,0.5,0.5v2.5h2.5c0.3,0,0.5,0.2,0.5,0.5
	s-0.2,0.5-0.5,0.5H4.2z"/>
<path class="st0" d="M20.1,20.1c0,0.3-0.2,0.5-0.5,0.5h-3c-0.3,0-0.5-0.2-0.5-0.5s0.2-0.5,0.5-0.5h2.5v-2.5c0-0.3,0.2-0.5,0.5-0.5
	s0.5,0.2,0.5,0.5V20.1z"/>
</svg>
