<?xml version="1.0" encoding="utf-8"?>
<!-- Generator: Adobe Illustrator 23.0.0, SVG Export Plug-In . SVG Version: 6.00 Build 0)  -->
<svg version="1.1" id="图层_1" xmlns="http://www.w3.org/2000/svg" xmlns:xlink="http://www.w3.org/1999/xlink" x="0px" y="0px"
	 viewBox="0 0 22 22" style="enable-background:new 0 0 22 22;" xml:space="preserve">
<style type="text/css">
	.st0{fill:#363636;enable-background:new    ;}
</style>
<path class="st0" d="M11,5c-3.8,0-7.1,2.4-8,5.7c0,0.2,0,0.3,0,0.5c0.9,3.4,4.2,5.7,8,5.7c0,0,0,0,0,0c3.8,0,7.1-2.4,8-5.7
	c0-0.2,0-0.3,0-0.5C18.1,7.4,14.8,5,11,5C11,5,11,5,11,5L11,5z M11,6c3.3,0,6.2,2.1,7,5c-0.8,2.9-3.7,5-7,5c-3.3,0-6.2-2.1-7-5
	C4.8,8.1,7.7,6,11,6z M11,8c-1.7,0-3,1.3-3,3s1.3,3,3,3s3-1.3,3-3S12.7,8,11,8z M11,9C11,9,11,9,11,9c1.2,0,2,0.9,2,2s-0.9,2-2,2
	s-2-0.9-2-2C9,9.9,9.9,9,11,9L11,9z"/>
</svg>
