<?xml version="1.0" encoding="utf-8"?>
<!-- Generator: Adobe Illustrator 23.0.0, SVG Export Plug-In . SVG Version: 6.00 Build 0)  -->
<svg version="1.1" id="图层_1" xmlns="http://www.w3.org/2000/svg" xmlns:xlink="http://www.w3.org/1999/xlink" x="0px" y="0px"
	 viewBox="0 0 22 22" style="enable-background:new 0 0 22 22;" xml:space="preserve">
<style type="text/css">
	.st0{fill:#808080;}
</style>
<path class="st0" d="M3,3v16h16V3H3z M4,4h2v2H4V4z M7,4h2v2H7V4z M10,4h2v2h-2V4z M13,4h2v2h-2V4z M16,4h2v2h-2V4z M4,7h2v2H4V7z
	 M7,7h2v2H7V7z M10,7h2v2h-2V7z M13,7h2v2h-2V7z M16,7h2v2h-2V7z M4,10h2v2H4V10z M7,10h2v2H7V10z M10,10h2v2h-2V10z M13,10h2v2h-2
	V10z M16,10h2v2h-2V10z M4,13h2v2H4V13z M7,13h2v2H7V13z M10,13h2v2h-2V13z M13,13h2v2h-2V13z M16,13h2v2h-2V13z M4,16h2v2H4V16z
	 M7,16h2v2H7V16z M10,16h2v2h-2V16z M13,16h2v2h-2V16z M16,16h2v2h-2V16z"/>
</svg>
